<?xml version="1.0" encoding="utf-8"?>
<!-- Generator: Adobe Illustrator 22.1.0, SVG Export Plug-In . SVG Version: 6.00 Build 0)  -->
<svg version="1.1" xmlns="http://www.w3.org/2000/svg" xmlns:xlink="http://www.w3.org/1999/xlink" x="0px" y="0px" width="158px"
	 height="111px" viewBox="0 0 158 111" style="enable-background:new 0 0 158 111;" xml:space="preserve">
<style type="text/css">
	.st0{display:none;}
	.st1{fill:none;}
	.st2{fill:#B1DED3;}
	.st3{fill-rule:evenodd;clip-rule:evenodd;fill:#00A651;}
	.st4{fill-rule:evenodd;clip-rule:evenodd;fill:#FFFFFF;}
	.st5{fill:#ED1C24;}
	.st6{fill-rule:evenodd;clip-rule:evenodd;fill:#DDDDDD;}
</style>
<g id="Background">
</g>
<g id="Guides" class="st0">
</g>
<g id="Foreground">
	<g>
		<polygon class="st1" points="-181.5,239.5 -181.5,-128.8 339.4,-128.8 339.4,239.5 -181.5,239.5 		"/>
		<path class="st1" d="M78.9,55.4"/>
	</g>
	<g>
		<g>
			<g>
				<g>
					<polygon class="st2" points="2.1,35.2 17.2,35.2 17.2,13.1 24.8,13.1 24.8,35.2 40.2,35.2 40.2,42.3 24.8,42.3 24.8,81.9 
						17.2,81.9 17.2,42.3 2.1,42.3 					"/>
				</g>
				<g>
					<path class="st3" d="M19.7,88.9H22l0-78.3c0-1.6,1.5-2.3,3-2.3c1.6,0,3,1.3,3,2.9c0,2.4-2.4,4.6-2.4,7.6c0,1.7,0.2,3.2,1.6,3.2
						c0.8,0,1.5-0.3,1.8-1.1c0.4-0.9-0.5-1.3-1.2-2.3c-1.2-2,2.5-4.1,2.5-7.1c0-2.7-2.5-5.4-5.2-5.4c-3.1,0-5.6,1.9-5.6,4.4
						L19.7,88.9z"/>
				</g>
				<g>
					<g>
						<path class="st4" d="M21.3,30.8c-3.8-2.9-12.9-7.8-16,2.2c-2.7,8.7,15.6,17.3,15.6,17.3s18.9-8.4,16.3-17.3
							C34.7,23.9,26.5,27.2,21.3,30.8z"/>
						<g>
							<path class="st5" d="M20.9,51.3l-0.4-0.2c-0.8-0.4-19-9.1-16.1-18.5c1-3.3,2.8-5.4,5.3-6.2c4.3-1.4,9.5,1.7,11.6,3.2
								c2.9-1.9,7.9-4.5,11.9-3c2.3,0.8,4,2.9,4.9,6.1c2.7,9.6-16.1,18.1-16.9,18.4L20.9,51.3z M12.1,27.9c-0.6,0-1.2,0.1-1.8,0.3
								c-1.9,0.6-3.3,2.3-4.1,5c-2,6.3,9.6,13.5,14.7,16c5.3-2.4,17.2-9.5,15.4-16c-0.7-2.6-2-4.2-3.7-4.8
								c-2.5-0.9-6.5,0.2-10.8,3.2l-0.6,0.4l-0.5-0.4C19.5,30.6,15.7,27.9,12.1,27.9z"/>
						</g>
					</g>
					<g>
						<g>
							<g>
								<path class="st4" d="M21.3,34.1c-2.5-1.9-8.5-5.1-10.6,1.4C8.9,41.3,21,47,21,47s12.5-5.5,10.8-11.4
									C30.1,29.6,24.7,31.8,21.3,34.1z"/>
							</g>
							<g>
								<path class="st5" d="M21,48.1l-0.4-0.2c-0.1-0.1-3.1-1.5-6-3.7c-4.1-3.1-5.7-6.1-4.8-8.9c0.7-2.3,2-3.8,3.7-4.3
									c2.9-0.9,6.1,0.9,7.8,2c2-1.3,5.3-2.9,8-1.9c1.6,0.6,2.8,2,3.4,4.2c0.8,2.9-0.9,5.9-5.1,9c-3,2.2-6.1,3.5-6.2,3.6L21,48.1z
									 M15.2,32.6c-0.4,0-0.7,0-1.1,0.2c-1.1,0.4-2,1.4-2.5,3.1c-1.2,3.9,6,8.4,9.4,10.1c3.5-1.6,11-6.1,9.9-10.1
									c-0.4-1.6-1.2-2.6-2.2-3c-1.6-0.6-4.1,0.2-6.8,2.1l-0.6,0.4l-0.5-0.4C19.1,33.7,17,32.6,15.2,32.6z"/>
							</g>
						</g>
					</g>
				</g>
			</g>
			<g>
				<g>
					<g>
						<path class="st4" d="M100.6,85.7C100.6,85.7,100.6,85.7,100.6,85.7c-0.1,0-0.1,0-0.1,0c-0.1,0-0.1,0-0.2,0c-0.1,0-0.1,0-0.2,0
							c-0.1,0-0.3,0-0.4,0c-0.2,0-0.3,0-0.5,0c-0.2,0-0.4,0-0.6,0c-0.2,0-0.4,0-0.6,0c-0.5,0-1,0-1.6-0.1c-0.6,0-1.1-0.1-1.7-0.3
							c-0.6-0.1-1.2-0.4-1.8-0.6c-0.6-0.3-1.1-0.6-1.6-1.1c-0.7-0.6-1.3-1.3-1.7-2.1c-0.4-0.8-0.7-1.7-0.8-2.6c0-0.2,0-0.3,0-0.5
							c0-0.2,0-0.3,0-0.5c0-0.1,0-0.1,0-0.2c0-0.1,0-0.1,0-0.2c0-0.4,0.1-0.9,0.2-1.3c0.1-0.4,0.3-0.8,0.4-1.2
							c0.5-1,1.1-1.7,1.8-2.3c0.7-0.6,1.8-1,3.1-1.1c0.1,0,0.2,0,0.4,0c0.1,0,0.3,0,0.4,0c0.1,0,0.1,0,0.2,0c0.1,0,0.1,0,0.2,0
							c0.3,0,0.6,0,0.9,0c0.3,0,0.6,0,0.8,0.1c0.3,0,0.5,0.1,0.8,0.1c0.3,0,0.5,0,0.7,0c0.3,0,0.5,0,0.7-0.1
							c0.2-0.1,0.4-0.1,0.5-0.2l1,3.9l-0.3,0.2c-0.2-0.8-0.8-1.5-1.6-2c-0.8-0.5-1.7-0.8-2.6-0.8c0,0-0.1,0-0.1,0c0,0-0.1,0-0.1,0
							c0,0-0.1,0-0.2,0c0,0-0.1,0-0.2,0c-1.1,0.1-2.1,0.5-3.1,1.4C91.5,74.9,91,76.2,91,78c0,0,0,0,0,0c0,0,0,0,0,0c0,0,0,0,0,0
							c0,0,0,0,0,0c0,0,0,0,0,0c0,1.8,0.6,3.3,1.8,4.4c1.2,1.1,2.5,1.8,3.8,1.9c0.1,0,0.2,0,0.3,0c0.1,0,0.2,0,0.3,0
							c0.9,0,1.8-0.2,2.6-0.7c0.8-0.5,1.5-1.3,1.9-2.3l0.3,0.1L100.6,85.7z"/>
					</g>
					<g>
						<path class="st4" d="M105.9,80.9c0.4,1.2,0.9,2.1,1.6,2.7c0.7,0.6,1.5,1,2.2,1.1c0.1,0,0.1,0,0.2,0c0.1,0,0.1,0,0.2,0
							c0.1,0,0.2,0,0.3,0c0.1,0,0.2,0,0.3-0.1c0.6-0.1,1.2-0.4,1.8-0.8c0.6-0.5,1-1.1,1.3-1.9l0.3,0.1l-1.2,3.6l-0.3-0.2
							c-0.2,0.1-0.5,0.1-0.8,0.2c-0.3,0.1-0.5,0.1-0.8,0.2c-0.2,0-0.3,0-0.5,0c-0.2,0-0.3,0-0.5,0c0,0-0.1,0-0.1,0c0,0,0,0-0.1,0
							c-1.5,0-2.9-0.4-4.1-1.2c-1.3-0.8-2-2-2.3-3.7c0,0,0-0.1,0-0.1c0,0,0-0.1,0-0.1c0,0,0-0.1,0-0.1c0,0,0-0.1,0-0.1
							c0-0.1,0-0.1,0-0.2c0-0.1,0-0.1,0-0.2c0-1.5,0.6-2.8,1.7-3.7c1.1-0.9,2.3-1.4,3.7-1.5c0.1,0,0.1,0,0.2,0c0.1,0,0.1,0,0.2,0
							c0,0,0.1,0,0.1,0c0,0,0.1,0,0.1,0c1,0,1.9,0.3,2.8,0.9c0.9,0.6,1.5,1.5,1.9,2.7L105.9,80.9z M105.9,79.9l5.4-1.6
							c-0.1-0.3-0.2-0.5-0.4-0.7c-0.1-0.2-0.3-0.4-0.5-0.6c-0.1-0.1-0.2-0.1-0.3-0.2c-0.1-0.1-0.2-0.1-0.3-0.1
							c-0.1,0-0.2-0.1-0.3-0.1c-0.1,0-0.2-0.1-0.3-0.1c-0.1,0-0.3-0.1-0.4-0.1c-0.1,0-0.3,0-0.4,0c0,0-0.1,0-0.1,0c0,0-0.1,0-0.1,0
							c0,0-0.1,0-0.1,0c0,0-0.1,0-0.1,0c-0.6,0.1-1.1,0.5-1.5,1.1c-0.4,0.6-0.6,1.3-0.6,2.1c0,0,0,0.1,0,0.1c0,0,0,0.1,0,0.1
							C105.9,79.8,105.9,79.8,105.9,79.9C105.9,79.9,105.9,79.9,105.9,79.9L105.9,79.9z"/>
					</g>
					<g>
						<path class="st4" d="M118.9,77.3c0.4-0.5,0.8-0.9,1.3-1.3c0.5-0.4,1.1-0.6,1.6-0.8c0.2-0.1,0.5-0.1,0.7-0.2
							c0.3,0,0.5-0.1,0.7-0.1c0.7,0,1.3,0.2,1.8,0.6c0.5,0.4,0.8,1,0.8,1.9v6.4c0,0.5,0.1,0.9,0.4,1c0.3,0.2,0.6,0.3,0.9,0.3v0.3
							h-4.8v-0.3c0.4,0,0.7-0.1,0.9-0.3c0.2-0.3,0.3-0.6,0.3-1.1v-5.3c0-0.6-0.1-1.1-0.4-1.4c-0.3-0.3-0.6-0.4-1-0.4
							c-0.1,0-0.3,0-0.4,0.1c-0.1,0-0.3,0.1-0.4,0.1c-0.5,0.2-1,0.5-1.4,1c-0.4,0.4-0.7,0.9-0.8,1.4c0,0,0,0.1,0,0.2
							c0,0,0,0.1,0,0.1l0,0.1v4c0,0.7,0.1,1.1,0.3,1.3c0.2,0.2,0.5,0.3,0.8,0.3v0.3h-4.8v-0.3c0.4,0,0.7-0.1,0.9-0.3
							c0.2-0.2,0.4-0.7,0.4-1.3v-5.8c0-1-0.1-1.6-0.4-1.8c-0.3-0.2-0.6-0.3-0.9-0.3v-0.3l2.9-0.4c0,0.1,0.1,0.2,0.1,0.3
							c0,0.1,0.1,0.2,0.1,0.2c0.1,0.2,0.2,0.5,0.2,0.7c0,0.2,0.1,0.4,0.1,0.6c0,0,0,0.1,0,0.1c0,0,0,0.1,0,0.1
							C118.9,77.2,118.9,77.2,118.9,77.3C118.9,77.3,118.9,77.3,118.9,77.3L118.9,77.3z"/>
					</g>
					<g>
						<path class="st4" d="M131.4,75.5h1.5c0.1,0,0.1,0,0.2,0c0.1,0,0.1,0,0.2,0c0.2,0,0.4,0,0.6-0.1c0.2,0,0.4-0.1,0.7-0.3
							l-0.8,1.6c0,0-0.1-0.1-0.1-0.1c0,0-0.1-0.1-0.1-0.1c-0.1-0.1-0.2-0.1-0.4-0.1c-0.1,0-0.3,0-0.4,0l-1.3,0v5.9
							c0,0.8,0.2,1.3,0.5,1.7c0.3,0.3,0.7,0.5,1,0.5c0.1,0,0.1,0,0.2,0c0.1,0,0.1,0,0.2,0c0.3-0.1,0.5-0.2,0.8-0.3
							c0.3-0.1,0.4-0.3,0.6-0.5c0,0,0-0.1,0-0.1c0,0,0-0.1,0-0.1l0.3,0.1l-0.8,1.8c-0.5,0.1-0.9,0.2-1.3,0.3
							c-0.4,0.1-0.8,0.1-1.1,0.1c-1.1,0-1.8-0.3-2.2-1c-0.3-0.7-0.5-1.5-0.5-2.5v-5.9h-1.3v-0.3c0.6-0.1,1-0.4,1.2-0.8
							c0.3-0.5,0.4-1,0.4-1.5c0,0,0-0.1,0-0.2c0-0.1,0-0.1,0-0.2c0,0,0-0.1,0-0.1c0,0,0-0.1,0-0.1c0-0.1,0-0.3,0-0.4
							c0-0.1,0-0.3,0-0.4l2-1V75.5z"/>
					</g>
					<g>
						<path class="st4" d="M139,77.3c0.1-0.1,0.2-0.3,0.3-0.4c0.1-0.2,0.3-0.4,0.5-0.6c0.3-0.3,0.7-0.6,1.2-0.9
							c0.5-0.3,1.1-0.4,1.9-0.4l0.4,0l-0.5,2.5c-0.1-0.1-0.2-0.2-0.4-0.3c-0.2-0.1-0.4-0.1-0.6-0.2c-0.1,0-0.1,0-0.2,0
							c-0.1,0-0.1,0-0.2,0c-0.1,0-0.1,0-0.2,0c0,0-0.1,0-0.1,0c-0.5,0.1-0.9,0.4-1.3,0.9c-0.4,0.5-0.6,1.3-0.6,2.3v4.1
							c0,0.4,0.1,0.6,0.3,0.8c0.2,0.1,0.4,0.2,0.6,0.2c0,0,0.1,0,0.1,0c0,0,0.1,0,0.1,0v0.3h-4.6v-0.3c0.3,0,0.6-0.1,0.8-0.2
							c0.2-0.2,0.3-0.4,0.3-0.7V77c0-0.4-0.1-0.7-0.4-0.8c-0.3-0.2-0.6-0.3-0.9-0.3v-0.3l2.9-0.3c0.3,0.3,0.4,0.7,0.4,1
							C138.9,76.6,139,77,139,77.3L139,77.3z"/>
					</g>
					<g>
						<path class="st4" d="M146.6,80.9c0.4,1.2,0.9,2.1,1.6,2.7c0.7,0.6,1.5,1,2.2,1.1c0.1,0,0.1,0,0.2,0c0.1,0,0.1,0,0.2,0
							c0.1,0,0.2,0,0.3,0c0.1,0,0.2,0,0.3-0.1c0.6-0.1,1.2-0.4,1.8-0.8c0.6-0.5,1-1.1,1.3-1.9l0.3,0.1l-1.2,3.6l-0.3-0.2
							c-0.2,0.1-0.5,0.1-0.8,0.2c-0.3,0.1-0.5,0.1-0.8,0.2c-0.2,0-0.3,0-0.5,0c-0.2,0-0.3,0-0.5,0c0,0-0.1,0-0.1,0c0,0,0,0-0.1,0
							c-1.5,0-2.9-0.4-4.1-1.2c-1.3-0.8-2-2-2.3-3.7c0,0,0-0.1,0-0.1c0,0,0-0.1,0-0.1c0,0,0-0.1,0-0.1c0,0,0-0.1,0-0.1
							c0-0.1,0-0.1,0-0.2c0-0.1,0-0.1,0-0.2c0-1.5,0.6-2.8,1.7-3.7c1.1-0.9,2.3-1.4,3.7-1.5c0.1,0,0.1,0,0.2,0c0.1,0,0.1,0,0.2,0
							c0,0,0.1,0,0.1,0c0,0,0.1,0,0.1,0c1,0,1.9,0.3,2.8,0.9c0.9,0.6,1.5,1.5,1.9,2.7L146.6,80.9z M146.6,79.9l5.4-1.6
							c-0.1-0.3-0.2-0.5-0.4-0.7c-0.1-0.2-0.3-0.4-0.5-0.6c-0.1-0.1-0.2-0.1-0.3-0.2c-0.1-0.1-0.2-0.1-0.3-0.1
							c-0.1,0-0.2-0.1-0.3-0.1c-0.1,0-0.2-0.1-0.3-0.1c-0.1,0-0.3-0.1-0.4-0.1c-0.1,0-0.3,0-0.4,0c0,0-0.1,0-0.1,0c0,0-0.1,0-0.1,0
							c0,0-0.1,0-0.1,0c0,0-0.1,0-0.1,0c-0.6,0.1-1.1,0.5-1.5,1.1c-0.4,0.6-0.6,1.3-0.6,2.1c0,0,0,0.1,0,0.1c0,0,0,0.1,0,0.1
							C146.6,79.8,146.6,79.8,146.6,79.9C146.6,79.9,146.6,79.9,146.6,79.9L146.6,79.9z"/>
					</g>
				</g>
				<g>
					<g>
						<path class="st4" d="M41,56.8l1.8-3.6V53c0,0,0,0,0,0c0,0,0-0.1,0-0.1c0-0.1-0.1-0.1-0.2-0.2c-0.1-0.1-0.2-0.1-0.3-0.1v-0.7
							h6.9v0.6c-0.4,0-0.7,0.1-0.9,0.4c-0.2,0.3-0.3,0.5-0.3,0.8c0,0.2-0.1,0.3-0.1,0.5c0,0.1,0,0.3,0,0.4v8.4
							c0,0.5,0.1,0.9,0.2,1.3c0.1,0.4,0.5,0.6,1.2,0.7v0.6h-6.9V65c0.4,0,0.7-0.1,0.9-0.2c0.2-0.2,0.3-0.4,0.4-0.6
							c0-0.1,0.1-0.2,0.1-0.3c0-0.1,0-0.2,0-0.3V55l-4,7.9L35.8,55v8.4c0,0.1,0,0.2,0,0.3c0,0.1,0,0.2,0.1,0.4
							c0,0.2,0.1,0.4,0.3,0.6c0.2,0.2,0.4,0.3,0.8,0.3v0.6h-4.1V65c0.4,0,0.6-0.1,0.7-0.3c0.1-0.2,0.2-0.5,0.2-0.8
							c0-0.1,0-0.2,0-0.3c0-0.1,0-0.2,0-0.3v-9c0-0.5,0-0.9-0.1-1.2c-0.1-0.4-0.4-0.5-0.8-0.5v-0.7H40v0.6c-0.2,0-0.3,0.1-0.4,0.2
							c-0.1,0.1-0.1,0.2-0.1,0.3c0,0.1,0,0.2,0.1,0.3c0,0.1,0.1,0.2,0.1,0.4c0,0,0,0,0,0.1c0,0,0,0,0,0.1L41,56.8z"/>
					</g>
					<g>
						<path class="st4" d="M56.8,58.8v-0.4c0-0.5-0.2-0.9-0.6-1.1c-0.4-0.3-0.8-0.4-1.3-0.4c-0.1,0-0.3,0-0.4,0
							c-0.1,0-0.3,0-0.4,0.1c-0.6,0.1-1.2,0.4-1.7,0.8c-0.5,0.4-0.8,0.9-1,1.6l-0.6-0.2l0.5-3.7c0.1,0.1,0.2,0.2,0.4,0.3
							c0.1,0,0.3,0.1,0.4,0.1c0.2,0,0.4,0,0.7-0.1c0.3-0.1,0.6-0.2,1-0.2c0.4-0.1,0.8-0.1,1.3-0.2c0.5-0.1,1.1-0.1,1.8-0.1
							c1.3,0,2.2,0.2,2.8,0.6c0.6,0.4,1,0.8,1.2,1.3c0.1,0.2,0.1,0.4,0.2,0.6c0,0.2,0.1,0.4,0.1,0.6v5.6c0,0.3,0,0.6,0.1,0.8
							c0.1,0.2,0.4,0.3,0.8,0.3v0.6h-4.4c-0.2-0.1-0.3-0.3-0.4-0.6c-0.1-0.2-0.2-0.5-0.2-0.7c-0.4,0.4-0.8,0.7-1.3,0.9
							c-0.5,0.2-1,0.4-1.5,0.5c-0.2,0-0.4,0.1-0.5,0.1c-0.2,0-0.3,0-0.5,0c-0.8,0-1.6-0.2-2.3-0.6c-0.7-0.4-1-1.1-1-1.9c0,0,0,0,0,0
							c0,0,0,0,0,0c0,0,0,0,0,0c0,0,0,0,0,0c0-1.1,0.4-1.9,1.2-2.4c0.8-0.6,1.7-1,2.7-1.3c0.6-0.2,1.2-0.3,1.8-0.4
							C56,59,56.4,58.9,56.8,58.8L56.8,58.8z M56.8,60.1c-0.6,0.1-1.1,0.3-1.6,0.5c-0.4,0.3-0.8,0.5-1.1,0.8c0,0-0.1,0.1-0.1,0.1
							c0,0,0,0,0,0.1c0,0.1-0.1,0.2-0.1,0.2c0,0.1-0.1,0.2-0.1,0.2c0,0.1-0.1,0.2-0.1,0.3c0,0.1,0,0.1,0,0.2c0,0,0,0,0,0.1
							c0,0,0,0.1,0,0.1c0,0.2,0.1,0.3,0.2,0.5c0.1,0.1,0.2,0.3,0.3,0.4c0,0,0.1,0.1,0.1,0.1c0,0,0.1,0,0.1,0.1
							c0.1,0,0.2,0.1,0.3,0.1c0.1,0,0.2,0,0.2,0c0.5,0,1-0.3,1.3-1c0.4-0.7,0.6-1.5,0.6-2.3V60.1z"/>
					</g>
					<g>
						<path class="st4" d="M67.1,57.3C67.1,57.3,67.1,57.3,67.1,57.3c0.1-0.1,0.1-0.1,0.1-0.1c0.4-0.5,0.9-1,1.5-1.4
							c0.6-0.4,1.2-0.7,2-0.7c0.1,0,0.2,0,0.2,0c0.1,0,0.2,0,0.3,0c0.1,0,0.1,0,0.2,0c0.1,0,0.1,0,0.2,0l-0.8,2.9
							c-0.1-0.1-0.3-0.2-0.4-0.2c-0.1-0.1-0.3-0.2-0.4-0.2c-0.1,0-0.2-0.1-0.3-0.1c-0.1,0-0.2,0-0.3,0c-0.5,0-0.9,0.2-1.4,0.6
							c-0.4,0.4-0.6,1-0.6,1.9v3.4c0,0.1,0,0.2,0,0.3c0,0.1,0,0.2,0,0.3c0,0.2,0.1,0.4,0.3,0.6c0.2,0.2,0.4,0.3,0.8,0.3v0.6H62V65
							c0.4,0,0.6-0.1,0.8-0.2c0.2-0.2,0.3-0.4,0.4-0.6c0-0.1,0.1-0.2,0.1-0.3c0-0.1,0-0.2,0-0.3v-5.7c0-0.5-0.1-0.9-0.2-1.3
							c-0.1-0.4-0.5-0.5-1.1-0.5l0-0.7l4.6-0.4c0.1,0.1,0.2,0.3,0.3,0.5c0.1,0.2,0.2,0.4,0.2,0.7c0,0.1,0,0.2,0,0.3
							c0,0.1,0,0.2,0,0.3c0,0.1,0,0.2,0,0.3C67.1,57.2,67.1,57.3,67.1,57.3L67.1,57.3z"/>
					</g>
					<g>
						<path class="st4" d="M72.4,66.5l0.6,0.2c0,0.1-0.1,0.2-0.1,0.3c0,0.1,0,0.2,0,0.3c0,0.3,0.1,0.5,0.3,0.6
							c0.2,0.1,0.4,0.2,0.7,0.2c0.1,0,0.2,0,0.3,0c0.1,0,0.2,0,0.3-0.1c0.3-0.1,0.7-0.4,0.9-0.8c0.3-0.4,0.4-0.8,0.4-1.4
							c0,0,0,0,0,0c0,0,0,0,0,0c0-0.2,0-0.4-0.1-0.7c-0.1-0.3-0.2-0.5-0.3-0.8L72.6,58c-0.2-0.6-0.5-1-0.8-1.4
							c-0.3-0.4-0.6-0.6-1-0.6l0-0.7h6.9V56c0,0,0,0,0,0c0,0,0,0,0,0c-0.2,0.1-0.5,0.2-0.6,0.3c-0.2,0.1-0.3,0.3-0.3,0.6
							c0,0.1,0,0.2,0,0.3c0,0.1,0.1,0.2,0.1,0.3c0,0,0,0.1,0,0.1c0,0,0,0,0,0.1l1.6,3.9l1.5-4.1c0,0,0-0.1,0-0.1c0,0,0-0.1,0-0.2
							c0,0,0-0.1,0-0.1c0,0,0-0.1,0-0.1c0,0,0,0,0,0c0,0,0,0,0,0c0-0.2-0.1-0.4-0.2-0.6c-0.1-0.2-0.3-0.3-0.6-0.3v-0.7h4.4V56
							c-0.1,0-0.2,0-0.2,0.1c-0.1,0-0.2,0-0.3,0.1c-0.2,0.1-0.5,0.3-0.7,0.6c-0.2,0.3-0.4,0.5-0.5,0.8c0,0,0,0,0,0c0,0,0,0,0,0
							l-4.4,10.3c-0.3,0.7-0.7,1.2-1.3,1.5c-0.6,0.3-1.2,0.5-1.9,0.6c0,0-0.1,0-0.2,0c0,0-0.1,0-0.1,0c0,0-0.1,0-0.1,0
							c0,0-0.1,0-0.1,0c-0.5,0-0.9-0.1-1.4-0.2c-0.5-0.1-0.9-0.3-1.2-0.5L72.4,66.5z"/>
					</g>
					<g>
						<path class="st4" d="M89,57.2c0.4-0.5,0.8-0.9,1.3-1.3c0.5-0.4,1-0.6,1.5-0.8c0.2-0.1,0.3-0.1,0.5-0.1c0.2,0,0.3,0,0.5,0
							c0.6,0,1.1,0.2,1.6,0.5c0.5,0.3,0.9,0.9,1.3,1.6c0.4-0.5,0.8-0.9,1.3-1.2c0.5-0.3,1-0.6,1.5-0.7c0.2-0.1,0.3-0.1,0.5-0.1
							c0.2,0,0.3,0,0.5,0c0.7,0,1.3,0.3,1.9,0.8c0.6,0.5,0.8,1.3,0.8,2.5v5.1c0,0.1,0,0.1,0,0.2c0,0.1,0,0.1,0,0.2
							c0,0.4,0.1,0.7,0.4,1c0.2,0.3,0.6,0.4,1.3,0.4v0.6h-6.7V65c0.6,0,0.9-0.1,1-0.5c0.1-0.3,0.2-0.7,0.2-1.1v-4.6
							c0-0.5-0.1-0.8-0.2-1c-0.1-0.2-0.3-0.3-0.5-0.3c-0.1,0-0.2,0-0.3,0.1c-0.1,0-0.2,0.1-0.3,0.1c-0.2,0.1-0.4,0.3-0.6,0.5
							c-0.2,0.2-0.3,0.4-0.4,0.7c-0.1,0.1-0.1,0.2-0.1,0.3c0,0.1,0,0.2,0,0.3v3.8c0,0.1,0,0.2,0,0.4c0,0.1,0,0.3,0.1,0.4
							c0,0.2,0.1,0.5,0.3,0.7c0.2,0.2,0.4,0.3,0.8,0.3v0.6h-6.4V65c0.5,0,0.8-0.1,1-0.4c0.2-0.3,0.3-0.6,0.3-0.9c0-0.1,0-0.2,0-0.3
							c0-0.1,0-0.2,0-0.3v-4c0-0.6-0.1-1.1-0.3-1.3c-0.2-0.3-0.4-0.4-0.6-0.4c-0.1,0-0.2,0-0.2,0c-0.1,0-0.2,0-0.2,0.1
							c-0.3,0.1-0.5,0.4-0.8,0.7c-0.2,0.3-0.4,0.6-0.5,0.9c0,0.1-0.1,0.2-0.1,0.3c0,0.1,0,0.2,0,0.3v3.6c0,0.1,0,0.2,0,0.4
							c0,0.1,0,0.2,0,0.3c0,0.3,0.1,0.5,0.3,0.8c0.2,0.2,0.5,0.3,0.9,0.3v0.6h-6.4V65c0.6,0,0.9-0.1,1-0.4c0.1-0.3,0.2-0.6,0.2-1
							v-5.9c0,0,0,0,0,0c0-0.4-0.1-0.7-0.2-1.1c-0.1-0.3-0.4-0.5-1-0.5v-0.7l4.6-0.4c0.1,0.2,0.1,0.3,0.2,0.5
							c0.1,0.1,0.1,0.3,0.2,0.4c0.1,0.2,0.1,0.4,0.1,0.6C89,56.8,89,57,89,57.2L89,57.2z"/>
					</g>
					<g>
						<path class="st4" d="M105,60.6c0.1-1.7,0.8-3,2.1-3.9c1.3-0.9,2.7-1.3,4.3-1.3l0.4,0c1.5,0,2.8,0.5,4,1.4
							c1.2,0.9,1.8,2.3,1.8,4.1c0,1.7-0.7,2.9-1.9,3.8c-1.2,0.9-2.6,1.4-4.1,1.5c-0.1,0-0.2,0-0.2,0c-0.1,0-0.2,0-0.2,0
							c-1.5,0-2.9-0.4-4.2-1.3c-1.3-0.9-1.9-2.2-1.9-4c0,0,0,0,0,0c0,0,0,0,0,0C104.9,60.7,104.9,60.7,105,60.6
							C105,60.7,105,60.6,105,60.6L105,60.6z M109.2,60.4c0,1.3,0.2,2.3,0.6,2.9c0.4,0.6,0.8,1,1.3,1c0,0,0.1,0,0.1,0
							c0,0,0.1,0,0.1,0c0.6,0,1.1-0.3,1.5-1c0.4-0.7,0.6-1.6,0.6-3c0-1.1-0.2-1.9-0.6-2.5c-0.4-0.6-0.8-0.9-1.3-1c0,0-0.1,0-0.1,0
							c0,0-0.1,0-0.1,0c0,0-0.1,0-0.1,0c0,0-0.1,0-0.1,0c-0.5,0.1-0.9,0.4-1.3,1c-0.4,0.6-0.6,1.3-0.6,2.3c0,0,0,0,0,0.1
							C109.1,60.3,109.2,60.3,109.2,60.4C109.2,60.3,109.2,60.4,109.2,60.4C109.2,60.4,109.2,60.4,109.2,60.4L109.2,60.4z"/>
					</g>
					<g>
						<path class="st4" d="M126.6,63.9c-0.4,0.5-0.8,0.8-1.3,1.2c-0.5,0.3-1,0.5-1.6,0.7c-0.2,0.1-0.4,0.1-0.7,0.2
							c-0.2,0-0.4,0-0.6,0c-0.8,0-1.4-0.2-2-0.6c-0.6-0.4-0.8-1.2-0.8-2.2v-5.6c0-0.3,0-0.6-0.1-0.9c-0.1-0.3-0.4-0.4-0.8-0.4v-0.7
							l5.1-0.4v7.2c0,0.4,0.1,0.8,0.2,1c0.1,0.2,0.3,0.3,0.6,0.3c0.1,0,0.2,0,0.3,0c0.1,0,0.3-0.1,0.4-0.2c0.4-0.2,0.7-0.5,1-0.9
							c0.3-0.4,0.4-0.9,0.4-1.4v-3.5c0-0.3-0.1-0.6-0.2-0.9c-0.1-0.3-0.4-0.5-1-0.5v-0.7l5.1-0.4v8.2c0,0.1,0,0.2,0,0.3
							c0,0.1,0,0.2,0,0.3c0,0.3,0.1,0.5,0.2,0.8c0.1,0.2,0.4,0.3,0.9,0.3v0.6h-4.8c-0.2-0.2-0.3-0.5-0.3-0.8
							C126.6,64.5,126.6,64.2,126.6,63.9L126.6,63.9z"/>
					</g>
					<g>
						<path class="st4" d="M138,57c0.3-0.3,0.6-0.5,0.9-0.8c0.3-0.2,0.7-0.4,1-0.6c0.4-0.2,0.7-0.3,1-0.4c0.4-0.1,0.7-0.1,1-0.1
							c0.8,0,1.5,0.2,2,0.7c0.6,0.4,0.8,1.1,0.8,1.8v5.9c0,0.1,0,0.2,0,0.3c0,0.1,0,0.2,0,0.4c0,0.2,0.1,0.4,0.2,0.6
							c0.1,0.2,0.3,0.3,0.6,0.3c0,0,0,0,0,0c0,0,0.1,0,0.1,0c0,0,0,0,0,0c0,0,0.1,0,0.1,0c0,0,0,0,0,0v0.6h-6.2V65
							c0.5,0,0.8-0.1,0.8-0.4c0.1-0.3,0.1-0.6,0.1-1v-4.9c0-0.4-0.1-0.6-0.2-0.8c-0.1-0.2-0.3-0.3-0.6-0.3c-0.1,0-0.2,0-0.3,0
							c-0.1,0-0.2,0.1-0.3,0.1c-0.3,0.2-0.7,0.5-0.9,0.9c-0.3,0.4-0.4,0.9-0.4,1.4v3.6c0,0.1,0,0.2,0,0.3c0,0.1,0,0.2,0,0.3
							c0,0.2,0.1,0.4,0.3,0.6c0.2,0.2,0.4,0.3,0.8,0.3v0.6h-6.4V65c0.7,0,1-0.1,1.1-0.4c0.1-0.3,0.2-0.6,0.2-0.9v-6.1
							c0,0,0-0.1,0-0.1c0-0.1,0-0.1,0-0.2c0-0.3-0.1-0.5-0.2-0.8c-0.1-0.2-0.4-0.4-0.9-0.4v-0.7l4.4-0.4c0.1,0.1,0.2,0.3,0.3,0.6
							c0.1,0.2,0.2,0.5,0.2,0.7c0,0,0,0.1,0,0.2c0,0.1,0,0.1,0,0.2C137.9,56.8,137.9,56.9,138,57C137.9,57,137.9,57,138,57L138,57z"
							/>
					</g>
					<g>
						<path class="st4" d="M146.4,56.3c0.5,0,0.9-0.2,1.2-0.6c0.4-0.5,0.5-1,0.5-1.8c0-0.1,0-0.2,0-0.3c0-0.1,0-0.2,0-0.3
							c0-0.1,0-0.1,0-0.2c0-0.1,0-0.1,0-0.2c0.7-0.1,1.3-0.3,1.8-0.5c0.5-0.2,1.1-0.4,1.6-0.7c0.1,0,0.1-0.1,0.2-0.1
							c0.1,0,0.1-0.1,0.2-0.1v4.2h1.6c0,0,0.1,0,0.1,0c0,0,0.1,0,0.1,0c0.2,0,0.4,0,0.6,0c0.2,0,0.4-0.1,0.5-0.3l-0.6,1.8
							c-0.1,0-0.2-0.1-0.4-0.1c-0.1,0-0.2,0-0.3,0c-0.1,0-0.2,0-0.3,0c-0.1,0-0.2,0-0.3,0l-1,0v5.1c0,0.6,0.1,1.1,0.4,1.4
							s0.5,0.4,0.8,0.4c0.1,0,0.2,0,0.3,0c0.1,0,0.2-0.1,0.3-0.1c0.3-0.1,0.6-0.3,0.8-0.6c0.3-0.3,0.4-0.6,0.5-1l0.6,0.1l-1.1,3.1
							c-0.3,0.2-0.7,0.3-1.3,0.4c-0.5,0.1-1.1,0.2-1.6,0.2c0,0,0,0-0.1,0c0,0,0,0-0.1,0c-0.9,0-1.7-0.2-2.4-0.6
							c-0.7-0.4-1.1-1.2-1.1-2.3V57h-1.5V56.3z"/>
					</g>
				</g>
			</g>
		</g>
		<g>
			<g>
				<path class="st6" d="M26.7,96c0-0.1-0.1-0.3-0.4-0.3c-0.3,0-0.3,0.1-0.6,0l-0.1,0c-0.2,0-0.2,0-0.4,0l-0.2,0l-0.3,0.1
					c-0.1-0.1-0.2,0-0.4,0c0,0-0.1,0-0.1,0c-0.3-0.1-0.4,0-0.5,0c0-0.1,0-0.2-0.1-0.2c-0.1-0.2-0.3-0.2-0.5-0.2
					c-0.1,0-0.3,0.1-0.4,0.1L22.4,96c0,0.1-0.1,0.2-0.2,0.2c0,0-0.3,0.1-0.5,0.1c-0.2,0-0.5,0.1-0.5,0.1c0,0-0.1,0-0.1,0
					c-0.1-0.1-0.2,0-0.3,0.1l-0.1,0c-0.1,0.1-0.4,0-0.5,0c-0.1,0.1-0.4,0.1-0.6,0.1h-0.2c-0.2,0.1-0.1-0.1-0.4,0.2
					c0,0-0.1,0.2-0.1,0.3c0,0.3,0.3,0.5,0.5,0.5c0.2-0.1,0.1,0,0.3,0c0.1,0,0.2,0,0.3-0.1c0.1-0.1,0-0.1,0.2-0.1
					c0.1,0,0.3,0,0.4-0.1c0.3,0,0.7,0,0.9-0.1c0,0,0.1,0.1,0.1,0.1c0,0.2-0.1,0.2-0.2,0.4l0,0.2c-0.2,0.2-0.2,0.3-0.3,0.5
					c0,0,0.1,0.1,0.1,0.2l-0.2,0c-0.1,0.3-0.2,0.6-0.4,0.8c0.1,0.3-0.2,0.3-0.2,0.7c-0.1,0-0.2,0.1-0.1,0.3c-0.2,0.2,0,0.4-0.2,0.5
					c0,0.1,0,0.2,0,0.3c-0.1,0.2-0.1,0.3-0.1,0.5c0,0.8,0.9,0.5,0.8,0.2c0,0,0,0,0.1,0c0-0.1,0-0.2-0.1-0.3c0.2-0.1,0.1-0.4,0.2-0.5
					c0.1-0.2,0-0.1,0.1-0.1c0.1-0.1,0.1-0.2,0-0.3l0.1-0.1c-0.1-0.1,0.1-0.2,0.1-0.3c0.1-0.1,0-0.2,0-0.2c0.1,0,0.2,0,0.2-0.1
					c0-0.1,0.1-0.2,0.1-0.3c0,0,0.2-0.4,0.2-0.4c0-0.1,0.2-0.1,0.2-0.3c0-0.2,0.1-0.1,0.3-0.4c0-0.2,0.2-0.3,0.2-0.5
					c0.1-0.1,0.3-0.3,0.3-0.4c0,0,0.1-0.1,0.1-0.2c0-0.1,0.1-0.1,0.1-0.2c0,0,0.2-0.1,0.3-0.1c0.1,0,0.2,0,0.4-0.1
					c0.1,0,0.3,0,0.4-0.1c0.2,0.1,0.3-0.1,0.6,0c0,0,0.1-0.1,0.1-0.2c0.1,0.1,0.1,0.1,0.2,0.1c0.1,0,0.3-0.1,0.4,0
					c0.2-0.1,0.3-0.1,0.5-0.1c0.4,0,0.5,0,0.5-0.1c0,0,0.1,0.1,0.2,0.1c0.1,0,0.2-0.1,0.2-0.2C26.7,96.2,26.8,96.1,26.7,96z"/>
			</g>
			<g>
				<path class="st6" d="M28.6,99.7c0-0.1-0.1-0.3-0.2-0.4c0-0.2-0.3-0.3-0.4-0.4c-0.2-0.1-0.3,0.4-0.3-0.1c-0.1,0-0.2-0.1-0.4-0.1
					c-0.2,0-0.2,0-0.3-0.1l-0.1,0.1c-0.1,0-0.3-0.2-0.5-0.3c-0.3-0.1-0.5,0.1-0.8,0.3v0.1c-0.2,0-0.3,0.3-0.5,0.4
					c-0.1,0.1-0.3,0.2-0.4,0.3c0,0.1,0,0.2,0,0.2c-0.1,0.1-0.2,0-0.3,0.1c-0.1,0-0.2,0.2-0.2,0.2c0,0.1,0,0.1-0.1,0.2
					c-0.1,0.1-0.3,0.1-0.2,0.3c-0.2,0.2-0.1,0.6-0.1,0.8c0.4,0.2,0.3,0.6,0.9,0.6c0.1,0,0.2,0.1,0.2,0c0.1,0,0.2,0,0.3-0.1
					c0.1,0.1,0.4,0,0.5,0c0.1-0.1,0.2-0.1,0.3-0.2c0.2,0,0.3,0,0.4-0.1c0.1,0,0.2,0,0.3-0.1c0.1,0,0.1,0,0.2,0
					c0-0.1,0.1-0.2,0.1-0.2c0.1,0,0.2,0,0.3-0.1c0.2-0.1,0.2-0.1,0.2-0.2c0.1,0,0.2-0.2,0.2-0.2c0,0,0.2-0.1,0.3-0.2
					C28.4,100.3,28.5,100,28.6,99.7z M27.6,99.6c0,0.1-0.1,0.1,0,0.2c-0.1,0.3-0.2,0.3-0.4,0.5c-0.1,0-0.2,0.1-0.4,0.2
					c-0.1,0.1-0.1,0.2-0.1,0.2c-0.1,0-0.2,0-0.3,0c-0.2,0.1-0.3,0.2-0.5,0.2c-0.1,0.1-0.2,0.1-0.4,0.2c-0.1,0.1-0.2,0-0.3,0.1
					c-0.1,0-0.3,0-0.4,0c0,0,0-0.1,0-0.2c0-0.1,0-0.1,0-0.2c0.1-0.1,0.1-0.2,0.2-0.4c0,0,0.1-0.1,0.1-0.2c0,0,0.1-0.1,0.2-0.1
					c0.1-0.3,0.2-0.1,0.3-0.4c0.1,0,0.1-0.4,0.3-0.2c0.1-0.1,0.1-0.1,0.3-0.2c0.1-0.1,0.2-0.1,0.4-0.2c0.1,0,0.2,0.1,0.4,0
					c0.1,0,0.2,0.1,0.3,0c0.1-0.1,0.2,0.1,0.2,0.1C27.6,99.5,27.6,99.6,27.6,99.6z"/>
			</g>
			<g>
				<path class="st6" d="M34.5,99.3c0-0.2-0.1-0.4-0.3-0.6c-0.2-0.2-0.5,0-0.8,0c0,0.1,0,0.1-0.1,0.1c-0.2,0.2-0.3,0.2-0.5,0.4
					l-0.1,0c-0.2,0.3-0.4,0.3-0.6,0.5c-0.1,0.1-0.2,0.2-0.3,0.2c-0.1,0.1,0.1,0.3-0.2,0.2c-0.1,0.1-0.3,0.2-0.4,0.3
					c-0.1,0.1-0.1,0.1-0.2,0.2c-0.2,0.1-0.2,0.1-0.3,0.2c0,0,0,0.2,0,0.2l-0.1-0.1c-0.1,0-0.3,0.3-0.4,0l0-0.2l0-0.2
					c0-0.2,0.1-0.2,0.1-0.4c0,0,0.1-0.1,0.1-0.2c0,0,0.1-0.1,0.1-0.1c0.1-0.1,0.2-0.2,0.1-0.3c0.1,0,0.1-0.1,0.2-0.1
					c0-0.1,0.1-0.2,0.2-0.3c0.1-0.2,0.2-0.5,0-0.7c-0.2,0-0.1-0.1-0.3-0.1c-0.1,0-0.2,0-0.3,0.1c-0.3,0.1-0.3,0.3-0.6,0.5
					c-0.1,0.1-0.1,0.2,0,0.3c0,0.1,0,0.1,0,0.3c0,0-0.1,0.1-0.1,0.1l0,0c-0.1,0.1-0.1,0.3,0,0.4c-0.1,0-0.2,0-0.2,0.1
					c-0.1,0.2-0.2,0.4-0.2,0.6c-0.1,0.2-0.1,0.4,0,0.6c0,0.1,0.2,0.2,0.2,0.4c0.4,0,0.4,0.2,0.7,0.2c0.1,0,0.4-0.1,0.5-0.2
					c0.1,0,0.3-0.1,0.4-0.2c0,0,0,0,0.1,0l0.4-0.3c0.1,0,0.2-0.1,0.3-0.2l0.1-0.1c0-0.1,0-0.1,0-0.1c0,0,0.1,0,0.2,0
					c0.1-0.1,0.3-0.2,0.4-0.3c0-0.1,0-0.1,0-0.1v0c0.2,0,0.3-0.2,0.4-0.3c0-0.1,0,0,0.2-0.2c0.1-0.1,0.2-0.1,0.3-0.2
					c0,0,0.1,0,0.1,0c0,0.1-0.1,0.2-0.1,0.3c-0.1,0.2,0,0.3,0,0.3c-0.1,0.1-0.1,0.2-0.2,0.4c0,0.2-0.1,0.2,0,0.4l-0.1,0
					c0,0.4,0,0.7,0.2,1c0.2,0.1,0.5,0.1,0.6-0.1c0-0.1,0.1-0.2,0-0.3c0,0,0-0.1-0.1-0.2l0.1-0.1c-0.1-0.2,0.2-0.4,0.1-0.8
					c0,0-0.1,0.1,0.1-0.1c0,0,0.1-0.2,0.1-0.3c0,0,0.1-0.1,0.2-0.2c-0.1-0.1,0-0.1,0-0.1C34.3,99.9,34.5,99.5,34.5,99.3z"/>
			</g>
			<g>
				<path class="st6" d="M39.5,100.9c0-0.1,0-0.2-0.1-0.3c-0.2,0-0.5,0-0.6,0.2c-0.3,0-0.5,0.2-0.7,0.3c-0.1,0.1-0.3,0-0.4,0
					c-0.2,0.1-0.3,0.1-0.5,0.2c-0.1,0-0.1,0.1-0.2,0.1l-0.1-0.1c0,0,0,0-0.2,0c-0.1,0-0.2,0-0.3,0c0,0,0,0-0.1,0
					c-0.2,0-0.2-0.1-0.3-0.2c0.1-0.1,0.1-0.2,0.1-0.3c-0.1-0.2,0-0.1,0-0.3c0,0,0-0.1,0.1-0.1c0,0,0.1-0.1,0.1-0.1
					c0.1-0.1,0.1-0.1,0.1-0.2l-0.1-0.1c0.1,0,0.2,0,0.2-0.1c0.1,0,0,0,0.1,0c0,0,0.2-0.2,0.2-0.3c0.1-0.1,0.2-0.2,0.3-0.3
					c0.2,0,0.3-0.2,0.4-0.3c0.1,0,0.2,0,0.3-0.1c0,0,0.1,0,0.1,0c0,0,0.1,0.1,0.1,0.1c0,0.2,0.1,0.3,0.2,0.5c0.1,0,0.2,0.1,0.4,0.1
					l0,0l0.3-0.3c0.1-0.2,0.1-0.4,0-0.6c0,0-0.1,0-0.1-0.1c-0.1-0.2-0.1-0.3-0.3-0.3c-0.2-0.2-0.6-0.2-0.9-0.2
					c-0.1,0-0.3,0.1-0.4,0.2c0,0-0.1,0-0.1-0.1c-0.2,0.1-0.4,0.2-0.6,0.3c-0.1,0-0.1,0.1-0.2,0.1c0,0-0.1,0.2-0.1,0.2l-0.2,0
					c-0.2,0.2-0.4,0.3-0.5,0.6c-0.1,0.1-0.2,0.2-0.2,0.2c0,0,0,0.1,0,0.1l-0.1,0c-0.1,0.2-0.4,0.4-0.2,0.8c-0.1,0.1-0.1,0.4,0,0.5
					c0.1,0.2,0.2,0.4,0.4,0.5c0,0.1,0.2,0.1,0.2,0.1s0.1,0,0.1-0.1c0.2,0.1,0.3,0.1,0.5,0.1c0.1,0,0.2-0.1,0.3-0.1c0,0,0,0,0.1,0.1
					c0.1,0,0.2,0,0.3,0c0.2,0,0.3-0.1,0.4-0.2c0,0,0.2-0.1,0.2-0.1l0.1,0.1c0.1-0.1,0.3-0.2,0.5-0.2c0.1,0,0.1,0,0.2,0l0.2-0.1
					C38.8,101.3,39.3,101.4,39.5,100.9z"/>
			</g>
			<g>
				<path class="st6" d="M45.1,99c-0.2-0.3-0.4-0.5-0.9-0.4c-0.1,0-0.2,0-0.3,0.1c-0.1,0-0.1,0.1-0.2,0.1c-0.1,0.1,0,0.1-0.2,0
					c-0.1,0.1-0.2,0.1-0.2,0.2c-0.3,0-0.3,0.3-0.5,0.2c0,0-0.1,0-0.1,0.1c0,0,0,0.1,0,0.2c-0.1,0-0.2,0-0.2,0c0,0-0.1,0.1-0.1,0.1
					L42,99.6l-0.3,0.3c-0.1,0-0.2,0-0.2,0c-0.1,0.1-0.1,0.1-0.2,0.2c-0.1,0-0.2,0.1-0.3,0.2l-0.1,0c0-0.1,0-0.1,0.1-0.2
					c0.1-0.1,0.1-0.3,0.2-0.4c0-0.1,0.2-0.2,0.1-0.3c0-0.1,0.1-0.2,0.2-0.3c0.1-0.1,0.1-0.2,0.2-0.3l0-0.2c0.1,0,0.2-0.1,0.2-0.1
					c0-0.1,0.1-0.1,0.2-0.3l0-0.1c0.1-0.1,0.4-0.2,0.3-0.5l0.1-0.1c0.1-0.2,0.2-0.3,0.3-0.4c0.1,0,0.2-0.1,0.2-0.2
					c0,0,0.1-0.1,0.1-0.1c0.1-0.1,0.1-0.2,0.1-0.2c0,0,0.1-0.1,0.1-0.1v-0.1c0.1-0.3-0.4-0.5-0.6-0.4c-0.1,0-0.2,0.1-0.3,0.2
					c-0.2,0.1-0.3,0.3-0.5,0.5c0.1,0.3-0.1,0.2-0.2,0.3c-0.1,0.2-0.2,0.3-0.3,0.5c0,0.1,0,0.1,0,0.2c0,0.1,0,0-0.1,0
					c-0.1,0.2-0.1,0.2-0.3,0.4c0.1,0.2-0.2,0.2-0.3,0.4c-0.1,0.1,0,0.2-0.2,0.3c0,0.1,0.2,0.3-0.1,0.4c-0.2,0.2-0.1,0.4-0.3,0.6
					c0,0.2-0.2,0.2-0.2,0.5c-0.1,0.1-0.1,0.2-0.1,0.3c0,0.1,0,0.1-0.2,0.2c0.2,0.3-0.1,0.3-0.1,0.6c-0.1,0.2,0.1,0.4,0.3,0.6
					c0.6,0.1,0.6-0.4,0.9-0.5c0-0.1,0-0.1,0.1-0.2c0.1-0.1,0.4-0.3,0.6-0.4c0-0.2,0.1-0.2,0.2-0.2c0.2-0.1,0.5-0.3,0.4-0.4
					c0,0,0.2,0,0.2,0c0.2-0.1,0.4-0.1,0.5-0.3c0.2,0,0.3-0.2,0.5-0.3c0.3,0,0.4-0.3,0.6-0.2c0,0,0,0,0,0c0,0.2-0.1,0.4-0.2,0.6
					c0,0.1,0.1,0.1,0.1,0.2c-0.2,0.2-0.3,0.3-0.3,0.6l0.1,0.1c-0.1,0.1-0.1,0.2-0.1,0.3c0,0.2,0,0.5,0.1,0.7c0,0.1,0.1,0,0.1,0.1
					c0.1,0,0,0.1,0.1,0.2c0.1,0.2,0.2,0.2,0.5,0.2c0.2-0.2,0.2-0.3,0.2-0.4c0-0.1-0.2-0.3-0.2-0.4c0-0.1,0.1-0.2,0-0.3l0-0.1l0.1,0
					c0.2-0.3,0-0.6,0.2-0.8c0.1-0.1,0.2-0.3,0.1-0.5C45.1,99.6,45.2,99.3,45.1,99z"/>
			</g>
			<g>
				<path class="st6" d="M49.4,97.5c0.1-0.3,0.1-0.5,0-0.7c-0.2-0.3-1-0.3-1.1,0.2c0,0.3,0.1,0.5,0.4,0.7c0,0,0.4,0,0.5,0
					C49.2,97.6,49.3,97.7,49.4,97.5z M47.8,98.7c-0.1-0.1-0.3-0.2-0.4-0.1c-0.2,0-0.4,0.3-0.6,0.4c-0.1,0.1-0.1,0.2-0.1,0.4
					c-0.1,0.1,0,0.2-0.1,0.2c-0.1,0-0.1,0.2-0.2,0.3c0,0,0,0.1-0.1,0.2c0,0,0,0.1,0.1,0.2c-0.1,0-0.2,0.1-0.2,0.1
					c0,0.1-0.1,0.1-0.1,0.2c0,0.1-0.1,0.2-0.1,0.3c0,0.1,0,0.2,0,0.3c0.1,0,0.1,0.1,0.1,0.1c0,0,0,0-0.1,0.1c0,0.1,0,0.1,0,0.2
					c0,0.2,0,0.3,0.1,0.5c0.1,0.3,0.4,0.2,0.6,0.2c0.3-0.1,0.7-0.4,0.3-0.7c-0.1,0-0.2,0-0.2-0.1c-0.1-0.1,0-0.4,0.1-0.5
					c-0.2-0.1,0.3-0.4,0.3-0.6c0-0.2,0.2-0.3,0.2-0.4c0.1-0.1,0-0.1,0.1-0.2c0.1-0.1,0.1-0.1,0.1-0.1C48,99.1,47.9,98.9,47.8,98.7z"
					/>
			</g>
			<g>
				<path class="st6" d="M53.7,101.9c0.2-0.2,0.1-0.4-0.1-0.5c-0.1,0-0.1-0.2-0.2-0.4c0,0,0-0.1,0-0.1c0-0.1-0.1-0.3,0-0.4
					c0-0.1,0-0.2,0-0.3c0-0.1,0-0.1,0-0.2c0,0-0.1,0-0.1-0.1c0-0.1,0.1-0.2,0.1-0.2c0-0.1,0-0.2-0.1-0.3c-0.1-0.1-0.2-0.2-0.3-0.3
					c-0.1,0-0.3-0.1-0.4-0.1c-0.3,0-0.4,0.1-0.7,0.1c-0.2,0-0.2,0.2-0.2,0.2s-0.1,0-0.2,0c-0.2,0.1-0.5,0.3-0.7,0.4
					c0,0-0.1,0.1-0.1,0.1c-0.1,0.1,0,0.1-0.2,0.1c-0.1,0.1-0.2,0.2-0.2,0.3c-0.2,0-0.3,0.2-0.4,0.2l-0.2,0.2c-0.1,0-0.1,0-0.1-0.1
					c0.1-0.1,0.1-0.2,0.2-0.3l0-0.1c0.1,0,0.1-0.1,0.2-0.1c0.1-0.1,0-0.2,0.2-0.2c0-0.1,0.1-0.1,0.1-0.1c0.1-0.1,0-0.1,0-0.2l0.2,0
					c0.1-0.1,0.1-0.2,0.2-0.3c0.1-0.1,0.1-0.2,0.1-0.3c-0.1-0.2-0.3-0.3-0.5-0.3l0,0c-0.3,0.1-0.6,0.1-0.7,0.5c0,0.1,0,0.2,0,0.2
					c0,0,0,0.1,0,0.1c-0.1,0.1-0.2,0.4-0.3,0.5c0,0.1,0,0.2,0,0.3l-0.2,0c-0.1,0.2-0.3,0.5-0.4,0.7c0.1,0.1,0.1,0.2,0.1,0.2
					c-0.1,0-0.2,0.1-0.2,0.3c0,0.1,0,0.1-0.1,0.2c0,0.3,0,0.4,0.2,0.6c0.2,0,0.3,0.1,0.5,0c0.1-0.1,0.3-0.2,0.3-0.4c0,0,0,0,0,0
					l0.2-0.1c0-0.1,0-0.1,0.1-0.1c0.2-0.1,0.1,0,0.3-0.2l0-0.2c0,0,0.1,0,0.2,0c0.3-0.1,0.3-0.3,0.6-0.5l0.1-0.2
					c0,0,0.1,0.1,0.1,0.1c0.1-0.1,0.2-0.1,0.3-0.3l0,0c0.1-0.1,0.3-0.1,0.3-0.2c0.1,0,0.1-0.1,0.2-0.1c0.2-0.1,0.2-0.1,0.3-0.1
					c0.1-0.1,0.3-0.1,0.3,0c0,0,0.1,0.1,0.1,0.1c0.1,0.1,0.1,0.1,0,0.2c0,0.1,0,0.2,0.1,0.2c0,0.1,0.1,0.3,0.2,0.2l-0.1,0.2
					c0,0.3,0.1,0.4,0.2,0.6c0,0,0.2,0,0.2,0c0,0.1,0,0.3,0.1,0.3C53.1,101.9,53.3,102.1,53.7,101.9z"/>
			</g>
			<g>
				<path class="st6" d="M58.9,100.1c0.1-0.3,0-0.5-0.2-0.7c-0.2-0.1-0.3,0-0.4,0l-0.1,0.1c-0.1,0,0,0.1,0,0.1c-0.1,0-0.1,0-0.2,0
					c-0.1,0.2-0.3,0.2-0.5,0.3c0,0,0,0.1,0,0.2c0,0-0.2-0.1-0.2,0c-0.1,0.1-0.2,0.2-0.3,0.3c-0.1,0-0.2,0.1-0.2,0.2
					c-0.1,0-0.2,0.1-0.2,0.2c0,0,0.1,0.2-0.1,0.1c-0.1,0-0.1,0.1-0.2,0.1c-0.3,0-0.3,0.3-0.4,0.3c-0.1,0.1-0.3,0.2-0.4,0.1
					c0-0.1,0-0.1,0-0.2l0.1-0.1c0-0.2,0.1-0.4,0.4-0.7c0.1-0.1,0.1-0.2,0.2-0.2c0,0,0.1-0.1,0.1-0.2c0-0.1,0-0.1,0.1-0.2
					c0,0,0.1-0.1,0.2-0.1c0.1-0.1,0.2-0.1,0.2-0.3c0,0,0-0.1-0.1-0.1c0.1,0,0.1,0,0.2,0c0,0,0.1,0,0.1-0.1c0.1-0.1,0.2,0,0.3-0.2
					c0.1,0,0.1-0.1,0.1-0.1c0.1,0,0.2-0.1,0.3-0.1c0,0,0.1,0.1,0.2,0.2c0,0.2,0.1,0.3,0.3,0.3c0.1,0,0.1,0,0.2-0.1
					c0.4-0.2,0.3-0.5,0.2-0.8c-0.1-0.3-0.5-0.3-0.7-0.4c-0.1,0-0.2,0-0.3,0c-0.1,0-0.1-0.1-0.3,0.1c-0.1,0-0.1,0.1-0.2,0.1
					c-0.1,0.1-0.3,0.2-0.4,0.3v0.1c0,0,0,0,0,0v0c-0.1,0-0.2,0.1-0.3,0.2c-0.1,0.1-0.1,0.1-0.2,0.3c0,0-0.1,0-0.1,0
					c-0.1,0-0.1,0.1-0.1,0.1c-0.2,0.1-0.3,0.3-0.4,0.4c0,0.1-0.1,0.2-0.2,0.3c0.1,0.1,0,0.1,0,0.1c-0.1,0-0.2,0.1-0.2,0.2
					c-0.1,0.1-0.1,0.2-0.1,0.2c0,0,0.1,0.2,0.1,0.2s-0.2,0.1-0.2,0.1c0,0.1-0.2,0.2-0.1,0.4c0,0,0,0.1,0.1,0.2c0,0,0,0,0,0.1
					c0.1,0.3,0.3,0.4,0.6,0.5c0.1,0,0.2,0,0.2,0c0.1,0,0.3-0.1,0.4-0.1v0c0.1,0,0.3,0,0.3-0.1l0,0c0,0,0,0,0,0
					c0.1,0,0.3-0.1,0.5-0.3c0,0,0,0,0.1,0l0.1,0c0.1,0,0.2-0.1,0.2-0.2l0.1-0.1l0.1,0l0.2-0.3c0.1,0,0.2-0.1,0.2-0.2
					c0.2-0.1,0.3-0.2,0.4-0.3c0.1,0,0.1,0,0.1,0c-0.1,0.1-0.1,0.2-0.1,0.3c0,0.1-0.2,0.2-0.2,0.4l0.1,0.2l-0.2,0
					c0,0-0.1,0.2-0.1,0.2c-0.1,0.1-0.2,0.1-0.2,0.3c-0.2,0.1-0.1,0.2-0.1,0.4l-0.1,0c-0.1,0.1-0.2,0.2-0.2,0.3
					c-0.2,0.2-0.3,0.4-0.1,0.5l-0.2,0c0,0-0.1,0.1-0.2,0.2c-0.1,0.1-0.2,0.1-0.2,0.3c-0.1,0-0.2,0.2-0.3,0.3c0,0-0.1-0.1-0.2,0
					c-0.1,0.1-0.1,0.1-0.1,0.1l-0.1,0c0,0-0.1,0.1-0.1,0.1c-0.1,0-0.3,0-0.4,0.1c-0.1,0-0.1,0-0.2,0c0,0-0.1,0-0.1,0l-0.2,0
					c0,0,0,0,0,0c0,0-0.1-0.1-0.1-0.1c-0.2-0.3-0.5-0.3-0.7,0c0,0.1-0.1,0.2,0,0.3c0,0,0.1,0.1,0.1,0.1c0,0,0,0,0,0.1
					c0.1,0.2,0.2,0.1,0.3,0.2c0.1,0.1,0.2,0,0.3,0c0.1,0.2,0.2,0.2,0.4,0.2l0.1,0c0.5-0.1,0.7-0.1,1.1-0.3c0.2-0.1,0.3-0.2,0.5-0.3
					c0,0,0.1,0,0.1,0c0.3-0.2,0.4-0.3,0.6-0.4c0.1-0.2,0.1-0.2,0.3-0.3c0.2-0.1,0.1-0.3,0.1-0.3c0.2-0.2,0-0.1,0.3-0.2l0.1-0.1
					c0.1-0.2,0.1-0.1,0.2-0.2c0-0.1,0.1-0.2,0.1-0.2l0-0.1c0,0,0-0.1,0-0.2c0.1,0,0.2-0.1,0.2-0.2c0,0,0-0.1,0.1-0.1
					c0.1-0.1,0-0.3,0.2-0.4c0.1,0,0.1-0.2,0.2-0.3c0.1-0.2,0.3-0.4,0.2-0.5c0-0.1,0-0.2,0-0.2c0.1,0,0.2-0.1,0.2-0.2
					C59,100.3,58.9,100.3,58.9,100.1z"/>
			</g>
			<g>
				<path class="st6" d="M68.3,101.1c-0.2-0.2-0.4-0.2-0.6-0.2c-0.1,0-0.2,0-0.3,0.1c-0.2,0-0.4,0-0.5,0.1c-0.2-0.1-0.3,0-0.4,0
					l-0.1,0.2c0-0.1-0.1-0.1-0.3-0.1c-0.3,0-0.4,0.2-0.6,0.1c-0.2,0.1-0.5,0-0.7,0.1c-0.3-0.1-0.5,0.1-0.7-0.1c-0.2,0,0-0.2-0.1-0.3
					c0.1-0.1,0-0.2,0.1-0.3c0.1-0.1,0.1-0.2,0.1-0.3c0.2-0.1,0.2-0.3,0.2-0.4c0.2-0.1,0.1-0.2,0-0.4c0.1,0,0.3-0.1,0.3-0.2
					c0.1-0.2,0.3-0.3,0.2-0.5c0.1-0.1,0.3-0.2,0.3-0.4c0.1-0.2,0.2-0.3,0.5-0.5c0-0.1,0.1-0.2,0.1-0.3c0-0.1,0.1,0,0.2-0.1
					c0,0,0.2-0.2,0.2-0.2c0-0.1,0-0.2,0-0.3c0,0,0.1,0,0.1,0.1c0.1-0.1,0.2-0.2,0.3-0.3c0.2-0.2,0.5-0.6,0.4-0.9
					c0-0.1-0.1-0.2-0.2-0.3c-0.3-0.2-0.6-0.1-0.8,0c0,0.2-0.1,0.2-0.2,0.2c-0.1,0.1-0.1,0.2-0.1,0.3c0,0.1,0.2,0.2-0.2,0.2
					c0,0-0.1,0.1-0.1,0.1c-0.1,0.2-0.1,0.2-0.3,0.4l0.1,0.2c-0.1,0-0.2,0-0.2,0c-0.2,0.2-0.1,0.4-0.4,0.5c-0.1,0.1-0.1,0.2-0.1,0.2
					c-0.1,0.1-0.1,0.3-0.3,0.4c-0.1,0.3-0.2,0.3-0.3,0.6c0,0.1,0,0.1,0,0.2c0,0,0,0-0.2,0.1c0,0.1,0,0.1-0.1,0.2
					c-0.1,0.2-0.3,0.3-0.3,0.5c-0.1,0.1,0.1,0.3-0.2,0.4c0.1,0,0,0.4,0,0.4c-0.1,0.6,0.5,0.9,0.9,1.2c0.1-0.1,0.2-0.1,0.3,0
					c0.2,0,0.3,0,0.4-0.1c0.1-0.1,0.3,0,0.4,0c0.2,0.1,0.4,0,0.5-0.1c0.1,0,0.2,0,0.3-0.1l0-0.2c0.1,0,0.2,0.1,0.3,0.1
					c0.2,0,0.3-0.1,0.4-0.1c0.2,0.1,0.3-0.1,0.5-0.1c0.1,0,0.2,0,0.3-0.1c0.2,0,0.2,0,0.3,0C68.2,101.4,68.3,101.4,68.3,101.1z"/>
			</g>
			<g>
				<path class="st6" d="M72.2,97.5c0.1-0.3,0.1-0.5,0-0.7c-0.2-0.3-1-0.3-1.1,0.2c0,0.3,0.1,0.5,0.4,0.7c0,0,0.4,0,0.5,0
					C72,97.6,72.1,97.7,72.2,97.5z M70.6,98.7c-0.1-0.1-0.3-0.2-0.4-0.1c-0.2,0-0.4,0.3-0.6,0.4c-0.1,0.1-0.1,0.2-0.1,0.4
					c-0.1,0.1,0,0.2-0.1,0.2c-0.1,0-0.1,0.2-0.2,0.3c0,0,0,0.1-0.1,0.2c0,0,0,0.1,0.1,0.2c-0.1,0-0.2,0.1-0.2,0.1
					c0,0.1-0.1,0.1-0.1,0.2c0,0.1-0.1,0.2-0.1,0.3c0,0.1,0,0.2,0,0.3c0.1,0,0.1,0.1,0.1,0.1c0,0,0,0-0.1,0.1c0,0.1,0,0.1,0,0.2
					c0,0.2,0,0.3,0.1,0.5c0.1,0.3,0.4,0.2,0.6,0.2c0.3-0.1,0.7-0.4,0.3-0.7c-0.1,0-0.2,0-0.2-0.1c-0.1-0.1,0-0.4,0.1-0.5
					c-0.2-0.1,0.3-0.4,0.3-0.6c0-0.2,0.2-0.3,0.2-0.4c0.1-0.1,0-0.1,0.1-0.2c0.1-0.1,0.1-0.1,0.1-0.1C70.8,99.1,70.8,98.9,70.6,98.7
					z"/>
			</g>
			<g>
				<path class="st6" d="M75.9,98.7c0-0.2,0.1-0.2,0-0.4c0-0.1-0.1-0.2-0.2-0.2c-0.2,0-0.3-0.1-0.5,0c-0.2,0-0.4,0.1-0.6,0.3
					c0,0.1,0,0.1-0.3,0.2c-0.1,0.1-0.3,0.1-0.5,0.5l0,0c0,0-0.1,0-0.1,0.1c-0.3,0.1-0.1,0.3-0.2,0.3c-0.1,0.1-0.2,0.1-0.3,0.2
					c0,0.1-0.2,0.1-0.3,0.3c-0.1,0.1-0.2,0.2-0.3,0.2v0.1c-0.2,0.1-0.4,0.3-0.5,0.5H72c0,0,0-0.1,0-0.2c0-0.1,0-0.2,0-0.2
					c0,0,0,0,0.1-0.2c0,0,0.1-0.1,0-0.2c0-0.1,0.1-0.2,0.1-0.3c0.1-0.1,0.1-0.1,0.1-0.2l0-0.1c0-0.1,0.1,0,0.1-0.1
					c0-0.2,0-0.2,0.2-0.4c0-0.2,0-0.4-0.3-0.5c-0.1,0-0.2,0-0.3,0c-0.2,0-0.2,0.1-0.4,0.2c0,0-0.1,0.3-0.1,0.2c0-0.1-0.1,0.1,0,0.3
					c-0.1,0.1-0.1,0.3,0,0.4c0,0,0.1,0,0.1,0.1c-0.1,0.1-0.1,0.2-0.2,0.3c0,0,0,0.1,0,0.2c0,0,0,0.2-0.1,0.3c0.1,0.2,0,0.2,0,0.4
					c0,0.2-0.1,0.5,0,0.7c-0.1,0.2,0,0.3-0.1,0.5c0,0.4,0.6,0.5,0.7,0.2c0.1-0.1,0.3-0.3,0.3-0.5c0.1-0.1,0.2-0.1,0.2-0.2
					c0,0,0.1,0,0.1-0.1h0l0.3-0.2c0.1-0.2,0.2-0.3,0.4-0.5l0-0.1c0.2-0.1,0.4,0,0.5-0.2c0,0,0-0.1,0-0.1c0-0.1,0-0.1,0.1-0.1
					c0.1-0.1,0.4-0.3,0.5-0.4c0.1-0.1,0.4-0.3,0.5-0.4c0,0,0-0.1,0.1-0.1c0.1,0,0.2,0,0.2,0c0.1-0.1,0.2,0,0.3-0.1
					C75.7,98.8,75.8,98.8,75.9,98.7z"/>
			</g>
			<g>
				<path class="st6" d="M79.7,100.9c0-0.1,0-0.2-0.1-0.3c-0.2,0-0.5,0-0.6,0.1c-0.2,0-0.5,0.2-0.7,0.3c-0.1,0.1-0.3,0.1-0.4,0.1
					c-0.2,0.1-0.3,0.1-0.5,0.1c-0.1,0-0.1,0.1-0.2,0.1l-0.1-0.1c0,0,0,0-0.2,0c-0.1,0-0.2,0-0.3,0c0,0,0,0-0.1,0
					c-0.1,0-0.1-0.2-0.1-0.2h0c0-0.1,0-0.1,0.1-0.2c-0.1-0.1,0-0.1-0.1-0.2c0.1,0,0.2-0.2,0.2-0.3l0-0.1c0-0.1,0.3-0.1,0.3-0.4
					c0.1,0,0.1-0.1,0.1-0.1c0,0,0-0.1,0-0.1c0,0,0.2-0.1,0.3-0.1c0.1-0.1,0.1-0.1,0.2-0.2c0.1-0.1,0.2,0,0.2-0.1
					c0-0.1,0.1-0.1,0.2-0.1c0.1,0,0.1,0,0.2-0.1c0.1,0,0.2,0,0.2,0l0.1,0.2c0,0.1-0.1,0.2-0.2,0.3c-0.1,0.1-0.2,0.1-0.2,0.2
					c0,0-0.2,0.1-0.3,0.2c-0.1,0.1-0.2,0.2-0.2,0.2l-0.1,0.1c-0.1,0.1-0.1,0.2-0.1,0.4c0.1,0.2,0.3,0.2,0.4,0.1
					c0.1-0.2,0.2-0.1,0.3-0.2l0.3-0.2c0,0,0.2-0.2,0.2-0.2l0.2,0c0.1,0,0.1-0.1,0.1-0.2c0,0,0.1,0,0.2,0c0,0,0.1-0.2,0.2-0.3
					c0-0.1,0-0.2,0.1-0.3c0-0.1,0.1-0.1,0-0.2c0-0.1-0.1-0.1-0.1-0.1c0-0.1,0-0.2-0.1-0.2c-0.1-0.1-0.2-0.1-0.2-0.2
					c-0.2-0.2-0.4-0.2-0.7-0.2c-0.2,0.1-0.2,0.1-0.4,0c-0.1,0-0.1,0-0.1,0c-0.2,0.1-0.4,0.1-0.5,0.3c0,0,0,0-0.1,0
					c-0.1,0,0,0.2-0.2,0.2L76.6,99c-0.1,0.1-0.2,0.2-0.2,0.3c-0.1,0.1-0.1,0.1-0.2,0.1c0,0.1-0.1,0.1-0.1,0.2
					c-0.1,0.1-0.2,0.2-0.3,0.3c0,0.1,0,0.1,0,0.1c0,0.1,0,0-0.1,0c-0.1,0.1-0.1,0.1-0.1,0.2l0.1,0.2c0,0-0.1,0-0.1,0
					c-0.1,0.2-0.2,0.4-0.1,0.6c0,0.1,0,0.2,0,0.3c0.1,0.3,0.3,0.3,0.7,0.5c0.2,0.1,0.3,0.1,0.5,0.1c0.1,0,0.2-0.1,0.3-0.1
					c0,0,0,0,0.1,0.1c0.1,0,0.2,0,0.3,0c0.2,0,0.3-0.1,0.4-0.2c0,0,0.2-0.1,0.2-0.1l0.1,0.1c0.1-0.1,0.3-0.2,0.5-0.2
					c0.1,0,0.1,0,0.2,0l0.2-0.1C79,101.3,79.5,101.4,79.7,100.9z"/>
			</g>
			<g>
				<path class="st6" d="M84.2,99.2c0.1-0.3,0.1-0.5-0.2-0.8c0-0.1-0.1-0.2-0.2-0.2c-0.1-0.1-0.2-0.1-0.4,0c0,0,0,0.1-0.1,0.1
					l-0.1-0.1c-0.3-0.1-0.5,0.1-0.7,0c-0.2,0-0.3,0.1-0.5,0.1c-0.1,0-0.1,0.1-0.2,0.2c-0.1,0-0.2-0.1-0.3,0
					c-0.3,0.1-0.4,0.1-0.6,0.3c-0.1,0.1-0.2,0-0.3,0.2c-0.2,0.1-0.1,0.3-0.3,0.4c0,0.3,0,0.5,0.2,0.7c0.1,0,0.2,0.2,0.4,0.2
					c0.1,0,0.2-0.2,0.3,0.1l0.4,0c0.1,0.1,0.2,0.1,0.3,0c0.2,0,0.4,0.1,0.5,0.1c0,0,0.1,0,0.1,0c0.1,0.1,0.1,0.1,0.2,0.2l0,0.1
					c-0.1,0.1-0.1,0.1-0.1,0.2l-0.1,0l-0.2,0.1c0,0,0,0.1,0,0.1l-0.2,0c-0.1,0.2-0.3,0.2-0.5,0.2c-0.4,0.3-0.6,0.1-1,0.4
					c0,0-0.1,0.1-0.1,0.2l0,0.1c0,0.3,0.2,0.3,0.4,0.4c0.3-0.1,0.6,0,0.7-0.3c0.1,0,0.1-0.1,0.3,0c0.3-0.2,0.6-0.3,0.9-0.5l0-0.1
					c0.1,0,0.2,0,0.2-0.1c0.1,0,0.3-0.2,0.2-0.1c0.1-0.2,0.1-0.2,0.1-0.2c0.6-0.1,0.3-1-0.1-1.2c-0.2,0-0.3-0.1-0.5-0.1
					c-0.1,0-0.3-0.1-0.7-0.1c-0.1,0-0.2,0-0.3,0c-0.1,0-0.1,0-0.2,0c-0.1,0-0.2,0-0.3-0.1c0,0,0-0.1,0-0.1c0.1,0,0.2-0.1,0.3-0.2
					c0,0,0.1,0,0.1,0c0.2,0,0.3-0.1,0.4-0.2c0,0,0.1,0.1,0.3,0c0,0,0.5-0.1,0.6-0.1c0.3-0.1,0.3,0,0.3,0c0,0.1,0,0.3,0.2,0.4
					C83.8,99.6,84.1,99.4,84.2,99.2z"/>
			</g>
			<g>
				<path class="st6" d="M85.8,101.6c0.2-0.5-0.5-0.9-0.7-0.5c0,0.1,0,0.2,0,0.3l-0.1,0c0,0.1-0.1,0.2-0.1,0.3l0,0
					c-0.1,0-0.2,0.1-0.2,0.2c0,0.1-0.1,0.2-0.1,0.3c0,0,0,0.1,0,0.1c-0.1,0-0.1,0-0.2,0.1c-0.1,0.1-0.1,0.2-0.2,0.3
					c-0.1,0-0.2,0.2-0.2,0.3c-0.1,0.2,0,0.3,0.2,0.4c0.6,0,0.7-0.4,1-0.8c0.2-0.2,0.3-0.4,0.5-0.7C85.7,101.8,85.7,101.7,85.8,101.6
					z"/>
			</g>
			<g>
				<path class="st6" d="M97.7,96.6c0-0.1-0.1-0.2-0.1-0.3c-0.2-0.1-0.3-0.4-0.6-0.4c-0.3-0.1-0.6-0.1-0.9-0.1c-0.1,0-0.1,0-0.2,0
					c0,0-0.1,0.1-0.1,0.1l-0.1-0.1c-0.1,0-0.2,0-0.3,0c-0.4-0.1-0.5,0.2-0.9,0.1c0,0-0.1,0.1-0.1,0.1c-0.2,0-0.2,0-0.4,0
					c-0.1,0-0.3,0-0.4,0c-0.4,0-0.5,0.2-0.9,0.1c-0.1,0.1-0.3,0.1-0.5,0.2c-0.2,0.1-0.4,0.2-0.3,0.5c0.1,0.2,0.2,0.2,0.4,0.4
					c0,0,0.1,0,0.1,0c0,0.1,0,0.1,0,0.2c-0.1,0.1-0.2,0.2-0.2,0.4c0,0,0.1,0.1,0.1,0.2c-0.1,0-0.2,0-0.3,0.1
					c-0.1,0.1-0.2,0.3-0.3,0.4c0,0.1,0,0.1,0,0.1c-0.1,0.1-0.2,0.1-0.2,0.2c-0.1,0.1-0.1,0.3-0.2,0.4c0,0.1-0.1,0.2-0.2,0.3
					c0,0,0,0.2,0,0.2l-0.2,0.1c-0.2,0.1-0.1,0.6-0.3,0.6c0,0.1,0,0.3-0.1,0.4c0,0-0.1,0.6,0,0.8c0.1,0.1,0,0,0.1,0.1
					c0.1,0.3,0.5,0.3,0.6,0.1c0-0.3,0-0.3,0.2-0.6c-0.1-0.1,0-0.2,0-0.3c0-0.1,0.1-0.2,0.1-0.3c0.1-0.1,0.1-0.3,0.2-0.4
					c-0.1-0.1-0.1-0.2,0-0.3c0.1-0.1,0.2-0.2,0.2-0.3c0.1,0,0.3-0.5,0.4-0.6c0.1-0.1,0.2-0.2,0.2-0.2c0-0.1,0.1-0.1,0.1-0.2
					c0.2-0.2,0.3-0.5,0.5-0.7c0-0.1,0-0.1-0.1-0.1c0.1,0,0.2-0.1,0.2-0.1c0.1-0.1,0.2-0.2,0.3-0.3c0,0,0-0.1,0.1-0.2
					c0.1,0,0-0.2-0.1-0.3c0-0.1,0,0,0.1,0c0.2,0,0.3-0.1,0.5-0.1c0.2-0.1,0.3-0.1,0.5-0.1c0.1,0,0.1-0.1,0.2-0.2
					c0.1,0,0.1,0.2,0.2,0.1c0.2,0,0.3,0,0.4-0.1c0.2,0,0.4,0,0.5,0c0.2,0,0.3,0,0.4,0c0.2,0.1,0.3,0.1,0.2,0.2c-0.1,0-0.1,0.1,0,0.2
					c-0.1,0-0.1-0.1-0.2,0c0,0.1-0.2,0.1-0.2,0.1c-0.1,0.1,0,0.1-0.1,0.1c-0.1,0-0.1,0.1-0.2,0.1c-0.1,0-0.4,0.2-0.7,0.4
					c-0.1,0,0,0.1,0,0.2c0,0-0.1,0-0.2-0.1c-0.3,0.2-0.5,0.3-0.6,0.3c-0.1,0.1-0.2,0.1-0.3,0.2c-0.1,0-0.3,0.1-0.3,0.3
					c-0.1,0-0.1,0-0.1-0.1c-0.2,0.2-0.3,0.1-0.5,0.2c-0.3,0.1-0.4,0.4-0.3,0.6c0.1,0.3,0.2,0.2,0.4,0.3c0.2,0,0.2,0,0.4-0.1
					c0-0.1,0.2-0.1,0.3-0.1c0.1-0.1,0.1-0.1,0.3,0c0.2,0,0.3-0.1,0.5-0.1c0.3,0,0.4,0,0.6,0l0.1,0c0.1,0.1,0.2,0.1,0.3,0.1
					c0.1,0,0.2,0.2,0.3,0.3c-0.1,0.1-0.1,0.3-0.2,0.3c0,0,0,0.1-0.1,0.1c-0.1,0,0,0.1,0,0.2c0,0.1-0.2,0-0.3,0.1
					c0,0-0.1,0.1-0.1,0.1c-0.1,0-0.2,0.1-0.3,0.2c0,0.1-0.1,0.2-0.1,0.2c-0.3,0.1-0.5,0.4-0.8,0.4c-0.1,0.2-0.2,0.1-0.4,0.3
					c0,0-0.1,0.1-0.1,0.1c0,0,0,0-0.1,0c-0.1,0-0.2,0-0.2,0.1c-0.1,0-0.2,0.1-0.2,0.1c-0.2,0.1-0.7,0.3-0.8,0.3
					c-0.1,0-0.3,0.2-0.1,0.5c0.1,0,0.2,0.1,0.3,0.1c0,0,0.2,0,0.3-0.1c0.2,0,0.3-0.1,0.6-0.3c0.2,0.1,0.4,0,0.5-0.2
					c0.4,0,0.7-0.4,1.2-0.5c0-0.1,0-0.1,0.1-0.1c0.2,0,0.3-0.1,0.4-0.2c0,0,0,0,0,0c0.2-0.1,0.5-0.2,0.6-0.5c0-0.1,0.3-0.2,0.4-0.4
					c0,0,0.1-0.1,0.2-0.2c0,0,0-0.1,0-0.1c0,0,0.1-0.1,0.1-0.2l0-0.2c0,0,0-0.2,0-0.4c0-0.1-0.1-0.2-0.2-0.4l-0.1,0c0,0,0-0.1,0-0.1
					c-0.1-0.1-0.2-0.1-0.3-0.2c0,0,0,0-0.1-0.1c-0.1,0-0.1,0.1-0.1,0.1c0,0-0.1-0.1-0.1-0.2c-0.1,0,0,0-0.1,0c-0.2-0.1-0.3,0-0.4,0
					l0,0c0,0,0.1-0.1,0.2-0.1c0.1-0.1,0.3,0,0.4-0.2c0.1,0,0.2-0.1,0.2-0.1c0.1-0.1,0.1-0.1,0.2-0.1c0.1,0,0,0,0.1-0.1
					c0-0.1,0.1,0,0.2-0.1c0.1-0.1,0.2-0.1,0.4-0.2c0.2-0.1,0.1-0.2,0.3-0.1c0.1-0.1,0.3-0.2,0.4-0.3c0,0,0-0.1,0-0.1
					c0,0,0.1,0,0.2,0c0-0.1,0.1-0.2,0.1-0.2C97.7,96.7,97.7,96.6,97.7,96.6z"/>
			</g>
			<g>
				<path class="st6" d="M102.6,99.3c0-0.2-0.1-0.4-0.3-0.6c-0.2-0.2-0.5,0-0.8,0c0,0.1,0,0.1-0.1,0.1c-0.2,0.2-0.3,0.2-0.5,0.4
					l-0.1,0c-0.2,0.3-0.4,0.3-0.6,0.5c-0.1,0.1-0.2,0.2-0.3,0.2c-0.1,0.1,0.1,0.3-0.2,0.2c-0.1,0.1-0.3,0.2-0.4,0.3
					c-0.1,0.1-0.1,0.1-0.2,0.2c-0.2,0.1-0.2,0.1-0.3,0.2c0,0,0,0.2,0,0.2l-0.1-0.1c-0.1,0-0.3,0.3-0.4,0l0-0.2l0-0.2
					c0-0.2,0.1-0.2,0.1-0.4c0,0,0.1-0.1,0.1-0.2c0,0,0.1-0.1,0.1-0.1c0.1-0.1,0.2-0.2,0.1-0.3c0.1,0,0.1-0.1,0.2-0.1
					c0-0.1,0.1-0.2,0.2-0.3c0.1-0.2,0.2-0.5,0-0.7c-0.2,0-0.1-0.1-0.3-0.1c-0.1,0-0.2,0-0.3,0.1c-0.3,0.1-0.3,0.3-0.6,0.5
					c-0.1,0.1-0.1,0.2,0,0.3c0,0.1,0,0.1,0,0.3c0,0-0.1,0.1-0.1,0.1l0,0c-0.1,0.1-0.1,0.3,0,0.4c-0.1,0-0.2,0-0.2,0.1
					c-0.1,0.2-0.2,0.4-0.2,0.6c-0.1,0.2-0.1,0.4,0,0.6c0,0.1,0.2,0.2,0.2,0.4c0.4,0,0.4,0.2,0.7,0.2c0.1,0,0.4-0.1,0.5-0.2
					c0.1,0,0.3-0.1,0.4-0.2c0,0,0,0,0.1,0l0.4-0.3c0.1,0,0.2-0.1,0.3-0.2l0.1-0.1c0-0.1,0-0.1,0-0.1c0,0,0.1,0,0.2,0
					c0.1-0.1,0.3-0.2,0.4-0.3c0-0.1,0-0.1,0-0.1v0c0.2,0,0.3-0.2,0.4-0.3c0-0.1,0,0,0.2-0.2c0.1-0.1,0.2-0.1,0.3-0.2
					c0,0,0.1,0,0.1,0c0,0.1-0.1,0.2-0.1,0.3c-0.1,0.2,0,0.3,0,0.3c-0.1,0.1-0.1,0.2-0.2,0.4c0,0.2-0.1,0.2,0,0.4l-0.1,0
					c0,0.4,0,0.7,0.2,1c0.2,0.1,0.5,0.1,0.6-0.1c0-0.1,0.1-0.2,0-0.3c0,0,0-0.1-0.1-0.2l0.1-0.1c-0.1-0.2,0.2-0.4,0.1-0.8
					c0,0-0.1,0.1,0.1-0.1c0,0,0.1-0.2,0.1-0.3c0,0,0.1-0.1,0.2-0.2c-0.1-0.1,0-0.1,0-0.1C102.4,99.9,102.6,99.5,102.6,99.3z"/>
			</g>
			<g>
				<path class="st6" d="M106.7,97.5c0.1-0.3,0.1-0.5,0-0.7c-0.2-0.3-1-0.3-1.1,0.2c0,0.3,0.1,0.5,0.4,0.7c0,0,0.4,0,0.5,0
					C106.5,97.6,106.6,97.7,106.7,97.5z M105.1,98.7c-0.1-0.1-0.3-0.2-0.4-0.1c-0.2,0-0.4,0.3-0.6,0.4c-0.1,0.1-0.1,0.2-0.1,0.4
					c-0.1,0.1,0,0.2-0.1,0.2c-0.1,0-0.1,0.2-0.2,0.3c0,0,0,0.1-0.1,0.2c0,0,0,0.1,0.1,0.2c-0.1,0-0.2,0.1-0.2,0.1
					c0,0.1-0.1,0.1-0.1,0.2c0,0.1-0.1,0.2-0.1,0.3c0,0.1,0,0.2,0,0.3c0.1,0,0.1,0.1,0.1,0.1c0,0,0,0-0.1,0.1c0,0.1,0,0.1,0,0.2
					c0,0.2,0,0.3,0.1,0.5c0.1,0.3,0.4,0.2,0.6,0.2c0.3-0.1,0.7-0.4,0.3-0.7c-0.1,0-0.2,0-0.2-0.1c-0.1-0.1,0-0.4,0.1-0.5
					c-0.2-0.1,0.3-0.4,0.3-0.6c0-0.2,0.2-0.3,0.2-0.4c0.1-0.1,0-0.1,0.1-0.2c0.1-0.1,0.1-0.1,0.1-0.1
					C105.3,99.1,105.3,98.9,105.1,98.7z"/>
			</g>
			<g>
				<path class="st6" d="M109,96.6c0.1-0.2,0.1-0.4-0.1-0.7c-0.1,0-0.2-0.1-0.4-0.1c-0.1,0-0.1,0-0.2,0.1l-0.1,0
					c-0.2,0.2-0.3,0.4-0.4,0.5c0,0.1,0,0.2-0.2,0.2c0,0.1-0.1,0.1-0.1,0.3c-0.1,0.2-0.3,0.4-0.3,0.4c0,0,0.1,0.2,0.1,0.2
					c0,0-0.2,0-0.2,0.1c-0.2,0.3-0.4,0.7-0.5,0.8c0,0.1,0.1,0.2,0.1,0.2c0,0-0.1,0-0.2,0c-0.3,0.3-0.2,0.6-0.4,0.9
					c0,0.3-0.3,0.3-0.2,0.6c-0.1,0-0.2,0.1-0.2,0.3c0,0.1-0.1,0.3-0.1,0.4l0,0.2l0,0c0,0.1-0.1,0.2-0.1,0.3c0,0.1,0,0.2,0,0.3
					c0,0.3,0.1,0.4,0.3,0.5c0.2,0,0.7-0.1,0.8-0.3c0.1-0.2,0-0.5-0.3-0.5c0-0.1,0-0.2,0-0.2c0-0.1,0-0.2,0.1-0.3
					c0.1-0.1,0.1-0.3,0.2-0.4c0-0.1,0-0.2,0-0.2c0,0,0.2-0.1,0.2-0.1c0.1-0.3,0.1-0.7,0.4-0.8c0.1,0,0.2-0.3,0.2-0.4
					c0.2-0.2,0.2-0.5,0.4-0.7c0.1-0.1,0.2-0.2,0.3-0.4c0-0.1,0.1-0.2,0.2-0.3c0.2-0.3,0.3-0.2,0.4-0.5l0.2-0.2c0,0-0.1-0.1-0.1-0.2
					C108.8,96.6,108.9,96.7,109,96.6z"/>
			</g>
			<g>
				<path class="st6" d="M114.4,96.7c0-0.2,0-0.2-0.1-0.4c-0.1-0.1-0.2-0.1-0.3-0.2c-0.2,0.1-0.1,0-0.3,0.1
					c-0.1,0.1-0.2,0.2-0.3,0.2c-0.1,0.1-0.2,0.3-0.1,0.4c0,0-0.1,0-0.2,0.1c-0.1,0.2-0.1,0.2-0.3,0.5c-0.1,0.1-0.1,0.3-0.1,0.3
					c0.2,0.2-0.1,0.2-0.1,0.2c-0.1,0.1-0.1,0.2-0.2,0.3c0,0.1-0.1,0.2-0.1,0.3l-0.1,0c-0.1-0.2-0.2-0.3-0.4-0.3
					c-0.1-0.1-0.2-0.1-0.3-0.1c-0.2,0-0.3,0-0.5,0c-0.1,0-0.2,0-0.3,0.1c-0.2,0-0.3,0.1-0.4,0.2c-0.2,0.1-0.2,0.2-0.4,0.2
					c0,0.1,0,0.1,0,0.1c-0.2,0-0.3,0.1-0.4,0.3c-0.1,0-0.2,0.2-0.1,0.3c0,0-0.2,0-0.2,0c-0.1,0.1-0.3,0.2-0.3,0.4
					c-0.2,0.1-0.3,0.2-0.4,0.4v0.1c-0.2,0.2-0.3,0.6-0.5,1c0,0.2,0.1,0.4,0.2,0.6c0.2,0.1,0.3,0.1,0.4,0.3c0.2,0.1,0.3,0,0.4,0
					c0.1,0,0.2-0.1,0.3,0c0-0.2,0.2-0.2,0.3-0.3c0.1,0,0.2-0.1,0.3-0.1l0.1,0.1c0.4-0.2,0.4-0.4,0.8-0.5l0-0.1c0.1,0,0.2,0,0.3-0.1
					c0.1-0.1,0-0.1,0.2-0.2c0-0.1,0.1-0.1,0.1-0.2c0.1-0.1,0.2-0.2,0.2-0.2l0.1,0c0,0-0.1,0.1-0.1,0.3c0.1,0.1,0,0.3-0.1,0.3l0,0.2
					c0,0-0.1,0.2-0.1,0.1c0,0.2,0.1,0.2,0,0.4l0,0.3c0.2,0.1,0.2,0.1,0.2,0.1c0,0,0.1,0.1,0.1,0.1c0.2,0,0.3,0,0.3,0
					c0-0.1,0.1-0.1,0.1,0c0,0,0.2-0.1,0.4-0.2c0.2-0.2,0.1-0.6-0.3-0.4c0,0,0,0,0-0.1c0-0.1,0-0.2,0-0.3c0-0.1,0.1-0.2,0.1-0.3
					c0-0.1,0-0.2,0.1-0.3c0.2-0.1,0.1-0.6,0.2-0.5c0.2-0.2,0.1-0.3,0.2-0.5c0-0.1,0-0.2,0.1-0.2c0.1-0.1,0-0.2,0.1-0.3
					c0-0.1,0.1-0.2,0.2-0.3c0.1-0.2,0.2-0.2,0.2-0.2l0-0.2l0.1,0.1c0.1-0.1,0.1-0.2,0.1-0.3l0.1,0c0.1-0.1,0.1-0.2,0.2-0.3
					c0.3-0.5,0.4-0.7,0.5-0.8c0.1-0.1-0.1-0.1-0.1-0.2L114.4,96.7z M111.7,99.4c-0.1,0.1-0.2,0.3-0.4,0.3c-0.1,0.1-0.1,0.1-0.2,0.2
					L111,100c-0.1,0.2-0.4,0.3-0.6,0.4c0,0.1-0.1,0.1-0.1,0.2c0,0-0.1,0-0.2-0.1c-0.1,0.2-0.3,0.2-0.3,0.2c-0.2,0.1-0.2,0.1-0.4,0.3
					l-0.2,0.1c-0.1,0.1-0.3,0.2-0.3,0c0-0.2,0.2-0.3,0.2-0.5c0.1,0,0.1-0.1,0.1-0.1c0.1-0.2,0-0.3,0.3-0.4c0.1-0.3,0.1-0.2,0.3-0.4
					c0.1-0.1,0.4-0.3,0.5-0.3l0.1-0.1c0,0,0-0.1,0-0.1c0,0,0.2,0,0.2,0c0,0,0.1-0.1,0.1-0.1c0.1,0,0.1-0.1,0.2-0.1
					c0.1,0,0.2,0,0.2-0.1c0.1,0,0.2,0,0.2,0.1c0,0,0,0.1,0,0.2C111.8,99.2,111.7,99.4,111.7,99.4z"/>
			</g>
			<g>
				<path class="st6" d="M117.1,97.5c0.1-0.3,0.1-0.5,0-0.7c-0.2-0.3-1-0.3-1.1,0.2c0,0.3,0.1,0.5,0.4,0.7c0,0,0.4,0,0.5,0
					C116.9,97.6,117,97.7,117.1,97.5z M115.6,98.7c-0.1-0.1-0.3-0.2-0.4-0.1c-0.2,0-0.4,0.3-0.6,0.4c-0.1,0.1-0.1,0.2-0.1,0.4
					c-0.1,0.1,0,0.2-0.1,0.2c-0.1,0-0.1,0.2-0.2,0.3c0,0,0,0.1-0.1,0.2c0,0,0,0.1,0.1,0.2c-0.1,0-0.2,0.1-0.2,0.1
					c0,0.1-0.1,0.1-0.1,0.2c0,0.1-0.1,0.2-0.1,0.3c0,0.1,0,0.2,0,0.3c0.1,0,0.1,0.1,0.1,0.1c0,0,0,0-0.1,0.1c0,0.1,0,0.1,0,0.2
					c0,0.2,0,0.3,0.1,0.5c0.1,0.3,0.4,0.2,0.6,0.2c0.3-0.1,0.7-0.4,0.3-0.7c-0.1,0-0.2,0-0.2-0.1c-0.1-0.1,0-0.4,0.1-0.5
					c-0.2-0.1,0.3-0.4,0.3-0.6c0-0.2,0.2-0.3,0.2-0.4c0.1-0.1,0-0.1,0.1-0.2c0.1-0.1,0.1-0.1,0.1-0.1
					C115.8,99.1,115.7,98.9,115.6,98.7z"/>
			</g>
			<g>
				<path class="st6" d="M121.5,101.9c0.2-0.2,0.1-0.4-0.1-0.5c-0.1,0-0.1-0.2-0.2-0.4c0,0,0-0.1,0-0.1c0-0.1-0.1-0.3,0-0.4
					c0-0.1,0-0.2,0-0.3c0-0.1,0-0.1,0-0.2c0,0-0.1,0-0.1-0.1c0-0.1,0.1-0.2,0.1-0.2c0-0.1,0-0.2-0.1-0.3c-0.1-0.1-0.2-0.2-0.3-0.3
					c-0.1,0-0.3-0.1-0.4-0.1c-0.3,0-0.4,0.1-0.7,0.1c-0.2,0-0.2,0.2-0.2,0.2s-0.1,0-0.2,0c-0.2,0.1-0.5,0.3-0.7,0.4
					c0,0-0.1,0.1-0.1,0.1c-0.1,0.1,0,0.1-0.2,0.1c-0.1,0.1-0.2,0.2-0.2,0.3c-0.2,0-0.3,0.2-0.4,0.2l-0.2,0.2c-0.1,0-0.1,0-0.1-0.1
					c0.1-0.1,0.1-0.2,0.2-0.3l0-0.1c0.1,0,0.1-0.1,0.2-0.1c0.1-0.1,0-0.2,0.2-0.2c0-0.1,0.1-0.1,0.1-0.1c0.1-0.1,0-0.1,0-0.2l0.2,0
					c0.1-0.1,0.1-0.2,0.2-0.3c0.1-0.1,0.1-0.2,0.1-0.3c-0.1-0.2-0.3-0.3-0.5-0.3l0,0c-0.3,0.1-0.6,0.1-0.7,0.5c0,0.1,0,0.2,0,0.2
					c0,0,0,0.1,0,0.1c-0.1,0.1-0.2,0.4-0.3,0.5c0,0.1,0,0.2,0,0.3l-0.2,0c-0.1,0.2-0.3,0.5-0.4,0.7c0.1,0.1,0.1,0.2,0.1,0.2
					c-0.1,0-0.2,0.1-0.2,0.3c0,0.1,0,0.1-0.1,0.2c0,0.3,0,0.4,0.2,0.6c0.2,0,0.3,0.1,0.5,0c0.1-0.1,0.3-0.2,0.3-0.4c0,0,0,0,0,0
					l0.2-0.1c0-0.1,0-0.1,0.1-0.1c0.2-0.1,0.1,0,0.3-0.2l0-0.2c0,0,0.1,0,0.2,0c0.3-0.1,0.3-0.3,0.6-0.5l0.1-0.2
					c0,0,0.1,0.1,0.1,0.1c0.1-0.1,0.2-0.1,0.3-0.3l0,0c0.1-0.1,0.3-0.1,0.3-0.2c0.1,0,0.1-0.1,0.2-0.1c0.2-0.1,0.2-0.1,0.3-0.1
					c0.1-0.1,0.3-0.1,0.3,0c0,0,0.1,0.1,0.1,0.1c0.1,0.1,0.1,0.1,0,0.2c0,0.1,0,0.2,0.1,0.2c0,0.1,0.1,0.3,0.2,0.2l-0.1,0.2
					c0,0.3,0.1,0.4,0.2,0.6c0,0,0.2,0,0.2,0c0,0.1,0,0.3,0.1,0.3C120.9,101.9,121.1,102.1,121.5,101.9z"/>
			</g>
			<g>
				<path class="st6" d="M126.7,100.1c0.1-0.3,0-0.5-0.2-0.7c-0.2-0.1-0.3,0-0.4,0l-0.1,0.1c-0.1,0,0,0.1,0,0.1c-0.1,0-0.1,0-0.2,0
					c-0.1,0.2-0.3,0.2-0.5,0.3c0,0,0,0.1,0,0.2c0,0-0.2-0.1-0.2,0c-0.1,0.1-0.2,0.2-0.3,0.3c-0.1,0-0.2,0.1-0.2,0.2
					c-0.1,0-0.2,0.1-0.2,0.2c0,0,0.1,0.2-0.1,0.1c-0.1,0-0.1,0.1-0.2,0.1c-0.3,0-0.3,0.3-0.4,0.3c-0.1,0.1-0.3,0.2-0.4,0.1
					c0-0.1,0-0.1,0-0.2l0.1-0.1c0-0.2,0.1-0.4,0.4-0.7c0.1-0.1,0.1-0.2,0.2-0.2c0,0,0.1-0.1,0.1-0.2c0-0.1,0-0.1,0.1-0.2
					c0,0,0.1-0.1,0.2-0.1c0.1-0.1,0.2-0.1,0.2-0.3c0,0,0-0.1-0.1-0.1c0.1,0,0.1,0,0.2,0c0,0,0.1,0,0.1-0.1c0.1-0.1,0.2,0,0.3-0.2
					c0.1,0,0.1-0.1,0.1-0.1c0.1,0,0.2-0.1,0.3-0.1c0,0,0.1,0.1,0.2,0.2c0,0.2,0.1,0.3,0.3,0.3c0.1,0,0.1,0,0.2-0.1
					c0.4-0.2,0.3-0.5,0.2-0.8c-0.1-0.3-0.5-0.3-0.7-0.4c-0.1,0-0.2,0-0.3,0c-0.1,0-0.1-0.1-0.3,0.1c-0.1,0-0.1,0.1-0.2,0.1
					c-0.1,0.1-0.3,0.2-0.4,0.3v0.1c0,0,0,0,0,0v0c-0.1,0-0.2,0.1-0.3,0.2c-0.1,0.1-0.1,0.1-0.2,0.3c0,0-0.1,0-0.1,0
					c-0.1,0-0.1,0.1-0.1,0.1c-0.2,0.1-0.3,0.3-0.4,0.4c0,0.1-0.1,0.2-0.2,0.3c0.1,0.1,0,0.1,0,0.1c-0.1,0-0.2,0.1-0.2,0.2
					c-0.1,0.1-0.1,0.2-0.1,0.2c0,0,0.1,0.2,0.1,0.2s-0.2,0.1-0.2,0.1c0,0.1-0.2,0.2-0.1,0.4c0,0,0,0.1,0.1,0.2c0,0,0,0,0,0.1
					c0.1,0.3,0.3,0.4,0.6,0.5c0.1,0,0.2,0,0.2,0c0.1,0,0.3-0.1,0.4-0.1v0c0.1,0,0.3,0,0.3-0.1l0,0c0,0,0,0,0,0
					c0.1,0,0.3-0.1,0.5-0.3c0,0,0,0,0.1,0l0.1,0c0.1,0,0.2-0.1,0.2-0.2l0.1-0.1l0.1,0l0.2-0.3c0.1,0,0.2-0.1,0.2-0.2
					c0.2-0.1,0.3-0.2,0.4-0.3c0.1,0,0.1,0,0.1,0c-0.1,0.1-0.1,0.2-0.1,0.3c0,0.1-0.2,0.2-0.2,0.4l0.1,0.2l-0.2,0
					c0,0-0.1,0.2-0.1,0.2c-0.1,0.1-0.2,0.1-0.2,0.3c-0.2,0.1-0.1,0.2-0.1,0.4l-0.1,0c-0.1,0.1-0.2,0.2-0.2,0.3
					c-0.2,0.2-0.3,0.4-0.1,0.5l-0.2,0c0,0-0.1,0.1-0.2,0.2c-0.1,0.1-0.2,0.1-0.2,0.3c-0.1,0-0.2,0.2-0.3,0.3c0,0-0.1-0.1-0.2,0
					c-0.1,0.1-0.1,0.1-0.1,0.1l-0.1,0c0,0-0.1,0.1-0.1,0.1c-0.1,0-0.3,0-0.4,0.1c-0.1,0-0.1,0-0.2,0c0,0-0.1,0-0.1,0l-0.2,0
					c0,0,0,0,0,0c0,0-0.1-0.1-0.1-0.1c-0.2-0.3-0.5-0.3-0.7,0c0,0.1-0.1,0.2,0,0.3c0,0,0.1,0.1,0.1,0.1c0,0,0,0,0,0.1
					c0.1,0.2,0.2,0.1,0.3,0.2c0.1,0.1,0.2,0,0.3,0c0.1,0.2,0.2,0.2,0.4,0.2l0.1,0c0.5-0.1,0.7-0.1,1.1-0.3c0.2-0.1,0.3-0.2,0.5-0.3
					c0,0,0.1,0,0.1,0c0.3-0.2,0.4-0.3,0.6-0.4c0.1-0.2,0.1-0.2,0.3-0.3c0.2-0.1,0.1-0.3,0.1-0.3c0.2-0.2,0-0.1,0.3-0.2l0.1-0.1
					c0.1-0.2,0.1-0.1,0.2-0.2c0-0.1,0.1-0.2,0.1-0.2l0-0.1c0,0,0-0.1,0-0.2c0.1,0,0.2-0.1,0.2-0.2c0,0,0-0.1,0.1-0.1
					c0.1-0.1,0-0.3,0.2-0.4c0.1,0,0.1-0.2,0.2-0.3c0.1-0.2,0.3-0.4,0.2-0.5c0-0.1,0-0.2,0-0.2c0.1,0,0.2-0.1,0.2-0.2
					C126.7,100.3,126.7,100.3,126.7,100.1z"/>
			</g>
			<g>
				<path class="st6" d="M140.5,96c-0.1-0.3-0.6-0.5-0.9-0.2c-0.1,0.1-0.1,0-0.3,0.3c-0.1,0.2-0.1,0.3,0,0.5c0,0-0.2,0.5-0.3,0.6
					c-0.1,0.2,0,0.3,0,0.4c-0.2,0-0.2,0-0.3,0.2c-0.1,0.3-0.2,0.5-0.1,0.6c0,0-0.1,0-0.2,0c0,0.1-0.1,0.2-0.1,0.3
					c-0.2,0-0.6,0-0.6,0c0,0,0,0,0,0c0,0-0.2,0-0.5,0c-0.3,0-0.5,0-0.8,0.1l-0.1-0.1c-0.2,0-0.4,0-0.5,0.1c-0.4,0.1-0.8,0-1.3,0.1
					c-0.3,0-0.4,0-0.5,0c-0.1,0-0.1,0-0.3,0c0,0,0,0.2-0.2,0c-0.1,0-0.1,0-0.3,0c0-0.1,0.1-0.1,0.1-0.1c0-0.2,0.1-0.3,0.3-0.5
					c-0.1-0.2,0.1-0.1,0.1-0.2c0.1-0.1,0.2-0.2,0.2-0.3c0-0.1,0-0.1,0-0.1c0.1-0.2,0.3-0.3,0.4-0.5c0.1-0.1,0.1-0.1,0.2-0.2
					c-0.3-0.2-0.2-0.1,0.1-0.2c0.1-0.3,0-0.3-0.1-0.6c-0.2-0.1-0.2-0.3-0.5-0.2c-0.2,0-0.2,0.1-0.3,0.1c-0.1,0.1-0.1,0.2-0.2,0.4
					c-0.1,0.1-0.4,0.5-0.3,0.6c0,0,0,0.1,0.1,0.1c-0.1,0-0.2,0-0.2,0c0,0.2-0.2,0.2-0.2,0.4c-0.1,0.2-0.2,0.3-0.2,0.5
					c-0.1,0.1,0.1,0.2-0.1,0.2c-0.2,0.1-0.3,0.4-0.4,0.6c-0.1,0-0.2,0-0.3,0.1c-0.4,0.1-0.4,0.4-0.4,0.7c0.1,0.1,0.2,0.2,0.2,0.3
					c-0.1,0.1-0.1,0.3-0.1,0.4c-0.2,0.1-0.2,0.3-0.3,0.4l0,0.1c-0.1,0.2-0.2,0.4-0.2,0.6c-0.1,0.2,0,0.2-0.2,0.3c0,0.1,0,0.2,0,0.3
					c0,0.1,0,0.2,0.2,0.3c0.3,0,0.4-0.1,0.5-0.3c0-0.1,0-0.1,0-0.1c0.1-0.2,0.3-0.2,0.3-0.5c0.1-0.1-0.1-0.2,0.1-0.3
					c0-0.1,0-0.2,0.1-0.3c0.2,0,0.3-0.3,0.3-0.4c0-0.2,0.1-0.4,0.3-0.6c0.2-0.1,0.5-0.1,0.7-0.1c0.1,0,0.1-0.1,0.2-0.2
					c0.1,0,0.1,0,0.3,0.1c0.1,0,0.2-0.1,0.3-0.1c0,0,0,0,0.4,0c0.2,0,0.4-0.1,0.4-0.2l0,0c0.2,0.1,0.5,0.1,0.6,0h0.1
					c0.1,0,0.2,0.1,0.3,0c0.1,0,0.4,0,0.6,0c0.1-0.1,0.1-0.1,0.1-0.1c0.2,0,0.2,0.1,0.4,0c0-0.1,0.1-0.1,0.2-0.2
					c0.1,0.1,0.1,0.1,0.3,0c0.4-0.1,0.1,0,0.4-0.1c0,0.1-0.1,0.3-0.1,0.3c0,0.1,0.1,0.1,0.1,0.2c0,0-0.1,0-0.2,0
					c0,0.1-0.2,0.2-0.1,0.4c-0.1,0.2,0,0.2-0.2,0.3c0.1,0.3-0.1,0.2-0.1,0.5c0,0.1-0.1,0.1-0.1,0.2c-0.1,0.1-0.1,0.2-0.1,0.3
					c0,0.2,0,0.4,0.1,0.6c0.3,0.2,0.4,0,0.5-0.1c0-0.1,0-0.2,0.1-0.3c0-0.2,0-0.3,0.3-0.6l-0.1-0.2c0,0,0.1-0.1,0.2-0.1
					c0-0.3,0.2-0.3,0.2-0.5c0,0,0,0,0.1,0l0-0.2c0,0,0.1,0,0.1-0.1c0-0.1,0-0.1,0-0.1v0c0,0,0.1-0.1,0.2-0.2
					c-0.1-0.2,0.1-0.2,0.1-0.4c-0.1-0.1-0.1-0.2,0.1-0.2c0.2-0.3,0.2-0.4,0.2-0.6c0.1-0.1,0.2-0.2,0.2-0.4c0-0.1,0.1-0.2,0.1-0.3
					l0,0c0,0,0,0,0.1-0.2c0.1-0.1,0.1-0.1,0.1-0.2c0,0-0.1-0.1-0.1-0.1l0.2,0c0-0.1,0.1-0.2,0.1-0.3C140.5,96.4,140.5,96.2,140.5,96
					z"/>
			</g>
			<g>
				<path class="st6" d="M144.6,99.7c0-0.1-0.1-0.3-0.2-0.4c0-0.2-0.3-0.3-0.4-0.4c-0.2-0.1-0.3,0.4-0.3-0.1c-0.1,0-0.2-0.1-0.4-0.1
					c-0.2,0-0.2,0-0.3-0.1l-0.1,0.1c-0.1,0-0.3-0.2-0.5-0.3c-0.3-0.1-0.5,0.1-0.8,0.3v0.1c-0.2,0-0.3,0.3-0.5,0.4
					c-0.1,0.1-0.3,0.2-0.4,0.3c0,0.1,0,0.2,0,0.2c-0.1,0.1-0.2,0-0.3,0.1c-0.1,0-0.2,0.2-0.2,0.2c0,0.1,0,0.1-0.1,0.2
					c-0.1,0.1-0.3,0.1-0.2,0.3c-0.2,0.2-0.1,0.6-0.1,0.8c0.4,0.2,0.3,0.6,0.9,0.6c0.1,0,0.2,0.1,0.2,0c0.1,0,0.2,0,0.3-0.1
					c0.1,0.1,0.4,0,0.5,0c0.1-0.1,0.2-0.1,0.3-0.2c0.2,0,0.3,0,0.4-0.1c0.1,0,0.2,0,0.3-0.1c0.1,0,0.1,0,0.2,0
					c0-0.1,0.1-0.2,0.1-0.2c0.1,0,0.2,0,0.3-0.1c0.2-0.1,0.2-0.1,0.2-0.2c0.1,0,0.2-0.2,0.2-0.2c0,0,0.2-0.1,0.3-0.2
					C144.4,100.3,144.6,100,144.6,99.7z M143.7,99.6c0,0.1-0.1,0.1,0,0.2c-0.1,0.3-0.2,0.3-0.4,0.5c-0.1,0-0.2,0.1-0.4,0.2
					c-0.1,0.1-0.1,0.2-0.1,0.2c-0.1,0-0.2,0-0.3,0c-0.2,0.1-0.3,0.2-0.5,0.2c-0.1,0.1-0.2,0.1-0.4,0.2c-0.1,0.1-0.2,0-0.3,0.1
					c-0.1,0-0.3,0-0.4,0c0,0,0-0.1,0-0.2c0-0.1,0-0.1,0-0.2c0.1-0.1,0.1-0.2,0.2-0.4c0,0,0.1-0.1,0.1-0.2c0,0,0.1-0.1,0.2-0.1
					c0.1-0.3,0.2-0.1,0.3-0.4c0.1,0,0.1-0.4,0.3-0.2c0.1-0.1,0.1-0.1,0.3-0.2c0.1-0.1,0.2-0.1,0.4-0.2c0.1,0,0.2,0.1,0.4,0
					c0.1,0,0.2,0.1,0.3,0c0.1-0.1,0.2,0.1,0.2,0.1C143.6,99.5,143.6,99.6,143.7,99.6z"/>
			</g>
			<g>
				<path class="st6" d="M150.3,99.4c-0.1-0.3-0.3-0.6-0.6-0.8c-0.3-0.2-0.6-0.1-0.9-0.2c-0.1,0-0.3,0-0.5,0c-0.2,0-0.3,0-0.5,0.1
					c0-0.1,0-0.2-0.1-0.2c-0.1-0.1-0.2-0.1-0.4-0.1c-0.1,0.1-0.2,0-0.4,0.3c0,0.1-0.1,0.2-0.2,0.2l-0.4,0c-0.2,0-0.3,0-0.4,0.2
					c0,0.1-0.1,0.2,0,0.4c0,0.1,0.2,0.2,0.3,0.2c0,0,0,0,0,0.1c-0.1,0.1-0.1,0.1-0.1,0.2c-0.1,0.1-0.1,0.2-0.2,0.3
					c0,0.1,0,0.1-0.1,0.2l0,0.1l-0.2,0.1c-0.1,0.1-0.2,0.3-0.2,0.4c-0.1,0.1-0.1,0.1-0.1,0.2c-0.2,0.1-0.1,0.3-0.2,0.4
					c-0.1,0.1-0.2,0.2-0.2,0.3c0,0.2-0.1,0.3-0.2,0.4c-0.1,0.2,0,0.3-0.2,0.4l0.1,0.2c-0.1,0.1-0.2,0.1-0.3,0.4c0,0.4-0.2,0.6,0.1,1
					c0.1,0.1,0.4,0,0.5-0.2c-0.1-0.2,0-0.3,0.2-0.4c-0.2-0.4,0-0.3,0.1-0.6c0.2-0.1,0.3-0.4,0.3-0.6c0.2,0,0.2-0.3,0.2-0.4l0.1,0
					c0.1-0.3,0.1-0.4,0.4-0.7c-0.1-0.1,0.1-0.1,0-0.1c0.1-0.1,0.2-0.2,0.2-0.4c0.1-0.1,0-0.2,0.1-0.2c0-0.1,0.1-0.1,0.1-0.1
					c0.1-0.3,0.2-0.5,0.5-0.8c0,0,0.1,0,0.1-0.1c0.1,0,0.2-0.1,0.4-0.2c0.1,0,0.4,0,0.5-0.1c0,0,0.1-0.1,0.1-0.1
					c0,0,0.1,0.1,0.2,0.1c0.1,0,0.3,0,0.4-0.1c0.2,0.1,0.3,0.1,0.5,0.1c0.1,0,0.1,0.1,0,0.2c0,0,0,0.1-0.1,0.2c0,0-0.2,0-0.2,0
					c-0.1,0.1-0.1,0.2-0.3,0.2c-0.1,0.1-0.2,0.3-0.4,0.3c-0.2,0-0.3,0.2-0.4,0.3c0,0,0,0.1,0,0.1c0,0-0.1,0-0.2,0
					c-0.2,0.1-0.5,0.3-0.7,0.4c0,0.1-0.1,0.2-0.3,0.1c-0.3,0.1-0.5,0.2-0.7,0.3c-0.1,0.1-0.1,0-0.1,0.1c-0.1,0.3,0.1,0.5,0.5,0.4
					c0.2,0,0.4-0.1,0.5-0.1c0.1-0.1,0.2-0.1,0.4-0.2c0.2,0,0.4-0.1,0.5-0.2c0.2,0,0.4-0.2,0.5-0.3c0.1,0,0.2,0,0.3-0.1
					c0,0,0-0.1,0-0.2c0,0,0.1,0.1,0.2,0c0.1,0,0.2-0.1,0.3-0.1c0.1-0.2,0.3-0.2,0.5-0.4c0.2-0.1,0.2-0.3,0.4-0.4
					c0.1-0.1,0.1-0.2,0.2-0.4c0,0,0-0.2,0-0.1L150.3,99.4z"/>
			</g>
			<g>
				<path class="st6" d="M155,100.9c0-0.1,0-0.2-0.1-0.3c-0.2,0-0.5,0-0.6,0.1c-0.2,0-0.5,0.2-0.7,0.3c-0.1,0.1-0.3,0.1-0.4,0.1
					c-0.2,0.1-0.3,0.1-0.5,0.1c-0.1,0-0.1,0.1-0.2,0.1l-0.1-0.1c0,0,0,0-0.2,0c-0.1,0-0.2,0-0.3,0c0,0,0,0-0.1,0
					c-0.1,0-0.1-0.2-0.1-0.2h0c0-0.1,0-0.1,0.1-0.2c-0.1-0.1,0-0.1-0.1-0.2c0.1,0,0.2-0.2,0.2-0.3l0-0.1c0-0.1,0.3-0.1,0.3-0.4
					c0.1,0,0.1-0.1,0.1-0.1c0,0,0-0.1,0-0.1c0,0,0.2-0.1,0.3-0.1c0.1-0.1,0.1-0.1,0.2-0.2c0.1-0.1,0.2,0,0.2-0.1
					c0-0.1,0.1-0.1,0.2-0.1c0.1,0,0.1,0,0.2-0.1c0.1,0,0.2,0,0.2,0l0.1,0.2c0,0.1-0.1,0.2-0.2,0.3c-0.1,0.1-0.2,0.1-0.2,0.2
					c0,0-0.2,0.1-0.3,0.2c-0.1,0.1-0.2,0.2-0.2,0.2l-0.1,0.1c-0.1,0.1-0.1,0.2-0.1,0.4c0.1,0.2,0.3,0.2,0.4,0.1
					c0.1-0.2,0.2-0.1,0.3-0.2l0.3-0.2c0,0,0.2-0.2,0.2-0.2l0.2,0c0.1,0,0.1-0.1,0.1-0.2c0,0,0.1,0,0.2,0c0,0,0.1-0.2,0.2-0.3
					c0-0.1,0-0.2,0.1-0.3c0-0.1,0.1-0.1,0-0.2c0-0.1-0.1-0.1-0.1-0.1c0-0.1,0-0.2-0.1-0.2c-0.1-0.1-0.2-0.1-0.2-0.2
					c-0.2-0.2-0.4-0.2-0.7-0.2c-0.2,0.1-0.2,0.1-0.4,0c-0.1,0-0.1,0-0.1,0c-0.2,0.1-0.4,0.1-0.5,0.3c0,0,0,0-0.1,0
					c-0.1,0,0,0.2-0.2,0.2l-0.2,0.1c-0.1,0.1-0.2,0.2-0.2,0.3c-0.1,0.1-0.1,0.1-0.2,0.1c0,0.1-0.1,0.1-0.1,0.2
					c-0.1,0.1-0.2,0.2-0.3,0.3c0,0.1,0,0.1,0,0.1c0,0.1,0,0-0.1,0c-0.1,0.1-0.1,0.1-0.1,0.2l0.1,0.2c0,0-0.1,0-0.1,0
					c-0.1,0.2-0.2,0.4-0.1,0.6c0,0.1,0,0.2,0,0.3c0.1,0.3,0.3,0.3,0.7,0.5c0.2,0.1,0.3,0.1,0.5,0.1c0.1,0,0.2-0.1,0.3-0.1
					c0,0,0,0,0.1,0.1c0.1,0,0.2,0,0.3,0c0.2,0,0.3-0.1,0.4-0.2c0,0,0.2-0.1,0.2-0.1l0.1,0.1c0.1-0.1,0.3-0.2,0.5-0.2
					c0.1,0,0.1,0,0.2,0l0.2-0.1C154.4,101.3,154.8,101.4,155,100.9z"/>
			</g>
		</g>
	</g>
</g>
</svg>
